<svg xmlns="http://www.w3.org/2000/svg" viewBox="0 0 200 160" width="100" height="80">
 <defs>
 <style>
 :root {
 --primary-navy: #1e3a8a;
 --accent-blue: #3b82f6;
 --text-gray: #64748b;
 }
 </style>
 </defs>
 
 <!-- Icon centered at top -->
 <g transform="translate(50, 10)">
 <circle cx="50" cy="50" r="48" fill="none" stroke="#1e3a8a" stroke-width="2"/>
 <circle cx="50" cy="50" r="38" fill="none" stroke="#64748b" stroke-width="1.5"/>
 <circle cx="50" cy="50" r="28" fill="none" stroke="#64748b" stroke-width="1.5"/>
 <g stroke-linecap="round" stroke-linejoin="round">
 <line x1="50" y1="2" x2="50" y2="98" stroke="#1e3a8a" stroke-width="1.5"/>
 <line x1="2" y1="50" x2="98" y2="50" stroke="#1e3a8a" stroke-width="1.5"/>
 <line x1="16.5" y1="16.5" x2="83.5" y2="83.5" stroke="#1e3a8a" stroke-width="1.5"/>
 <line x1="83.5" y1="16.5" x2="16.5" y2="83.5" stroke="#1e3a8a" stroke-width="1.5"/>
 <circle cx="50" cy="2" r="3" fill="#1e3a8a"/>
 <circle cx="98" cy="50" r="3" fill="#1e3a8a"/>
 <circle cx="50" cy="98" r="3" fill="#1e3a8a"/>
 <circle cx="2" cy="50" r="3" fill="#1e3a8a"/>
 <circle cx="16.5" cy="16.5" r="3" fill="#1e3a8a"/>
 <circle cx="83.5" cy="16.5" r="3" fill="#1e3a8a"/>
 <circle cx="83.5" cy="83.5" r="3" fill="#1e3a8a"/>
 <circle cx="16.5" cy="83.5" r="3" fill="#1e3a8a"/>
 <circle cx="50" cy="12" r="2.5" fill="#3b82f6"/>
 <circle cx="88" cy="50" r="2.5" fill="#3b82f6"/>
 <circle cx="50" cy="88" r="2.5" fill="#3b82f6"/>
 <circle cx="12" cy="50" r="2.5" fill="#3b82f6"/>
 <circle cx="24.5" cy="24.5" r="2.5" fill="#3b82f6"/>
 <circle cx="75.5" cy="24.5" r="2.5" fill="#3b82f6"/>
 <circle cx="75.5" cy="75.5" r="2.5" fill="#3b82f6"/>
 <circle cx="24.5" cy="75.5" r="2.5" fill="#3b82f6"/>
 <circle cx="50" cy="50" r="6" fill="#1e3a8a"/>
 </g>
 </g>
 
 <!-- Text centered below icon -->
 <text x="100" y="132" text-anchor="middle" font-family="Montserrat, Inter, Arial, sans-serif" font-size="28" font-weight="700" fill="#1e3a8a">IRIS</text>
 <text x="100" y="148" text-anchor="middle" font-family="Montserrat, Inter, Arial, sans-serif" font-size="9" font-weight="400" fill="#64748b">Integrated Resource Intelligence System</text>
</svg>
