<?xml version="1.0" encoding="UTF-8" standalone="no"?>
<!-- Created with Inkscape (http://www.inkscape.org/) -->

<svg
   width="97.01342mm"
   height="33.950317mm"
   viewBox="0 0 97.01342 33.950317"
   version="1.1"
   id="svg1"
   xml:space="preserve"
   xmlns:inkscape="http://www.inkscape.org/namespaces/inkscape"
   xmlns:sodipodi="http://sodipodi.sourceforge.net/DTD/sodipodi-0.dtd"
   xmlns="http://www.w3.org/2000/svg"
   xmlns:svg="http://www.w3.org/2000/svg"><sodipodi:namedview
     id="namedview1"
     pagecolor="#ffffff"
     bordercolor="#000000"
     borderopacity="0.25"
     inkscape:showpageshadow="2"
     inkscape:pageopacity="0.0"
     inkscape:pagecheckerboard="0"
     inkscape:deskcolor="#d1d1d1"
     inkscape:document-units="mm"
     inkscape:export-bgcolor="#ffffffff"><inkscape:page
       x="0"
       y="0"
       width="97.01342"
       height="33.950317"
       id="page2"
       margin="0"
       bleed="0" /></sodipodi:namedview><defs
     id="defs1" /><g
     inkscape:label="Layer 1"
     inkscape:groupmode="layer"
     id="layer1"
     transform="translate(-53.381206,-204.39103)"><g
       id="g3"
       transform="translate(-7.3516717,93.852535)"><g
         id="g4"><g
           id="g46"
           transform="translate(17.564183,-68.442153)"
           inkscape:export-filename="Icon_Horizontal.svg"
           inkscape:export-xdpi="1000"
           inkscape:export-ydpi="1000"><path
             style="fill:#384eaa;fill-opacity:1;stroke:#000000;stroke-width:0.554;stroke-dasharray:none;stroke-opacity:1"
             d="m 65.967187,157.73071 c -3.316768,-0.72005 -3.411467,-5.46087 -0.130075,-6.51187 0.107828,-0.0345 0.117668,-0.17512 0.117668,-1.68085 v -1.64315 l -0.353004,-0.046 c -1.177696,-0.15353 -2.855874,-1.02962 -3.603659,-1.88131 l -0.203773,-0.23207 -1.754423,1.15743 c -1.735712,1.1451 -1.753991,1.1596 -1.714174,1.35916 0.839677,4.2083 -4.44318,6.17468 -6.276151,2.33611 -1.437279,-3.00992 2.408647,-6.06768 5.046663,-4.01242 l 0.304838,0.23749 1.099801,-0.71823 c 2.100305,-1.37161 2.34372,-1.53965 2.34372,-1.61794 0,-0.0433 -0.08747,-0.27368 -0.194382,-0.51196 -0.625162,-1.39337 -0.7046,-3.2303 -0.202045,-4.67213 0.07422,-0.21293 0.151607,-0.43891 0.171979,-0.50217 0.02876,-0.0893 -0.186338,-0.26037 -0.961892,-0.76496 -0.549409,-0.35746 -1.267976,-0.82918 -1.596812,-1.04828 l -0.597886,-0.39835 -0.175363,0.16529 c -2.560757,2.41354 -6.700807,-0.73827 -5.193835,-3.95406 1.759765,-3.75524 7.200501,-1.64471 6.231426,2.41725 -0.03312,0.13882 0.259804,0.34695 2.335884,1.65971 0.818527,0.51758 0.803686,0.51273 0.940383,0.30703 0.635934,-0.95698 2.142403,-1.9007 3.599403,-2.25483 l 0.751213,-0.18259 7.82e-4,-1.81545 7.81e-4,-1.81546 -0.463289,-0.18998 c -3.710284,-1.52155 -2.058377,-7.16403 1.883378,-6.43313 3.281716,0.60851 3.676517,5.26369 0.548076,6.46247 l -0.419257,0.16064 -9.94e-4,1.83227 c -9.95e-4,1.74595 0.005,1.83226 0.12487,1.83226 1.021592,0 2.848739,0.93666 3.889428,1.99384 0.303863,0.30869 0.56632,0.56124 0.583237,0.56124 0.122642,0 3.095453,-2.0286 3.075221,-2.09848 -1.161371,-4.01184 4.439916,-6.174 6.238461,-2.40812 1.481277,3.10157 -2.4639,6.17214 -5.140686,4.00104 l -0.272127,-0.22072 -1.584587,1.05234 -1.584586,1.05234 0.114638,0.26896 c 0.599929,1.40747 0.551881,3.43761 -0.118158,4.99245 -0.131467,0.30507 -0.226406,0.56546 -0.210975,0.57863 0.07704,0.0658 3.20819,2.11667 3.332074,2.18253 0.122863,0.0653 0.187224,0.0433 0.442385,-0.15158 3.240971,-2.47466 7.205076,2.16855 4.317028,5.0566 -2.354664,2.35467 -6.458969,0.006 -5.589337,-3.19833 0.09298,-0.34262 0.09119,-0.36054 -0.04559,-0.45723 -0.445154,-0.31466 -3.301263,-2.17831 -3.338338,-2.17831 -0.02434,0 -0.268337,0.19864 -0.542185,0.44141 -0.961233,0.85218 -2.044357,1.39241 -3.171397,1.58178 l -0.520357,0.0874 v 1.66786 c 0,1.55369 0.0082,1.66786 0.119564,1.66786 0.26529,0 1.105917,0.47714 1.449409,0.82267 2.393802,2.40807 0.215359,6.38428 -3.103063,5.66388 z m 1.177775,-1.51374 c 1.998699,-0.43429 1.695635,-3.51835 -0.3462,-3.52301 -2.3999,-0.006 -2.486978,3.4314 -0.09085,3.58576 0.0629,0.004 0.259572,-0.0241 0.437053,-0.0627 z m -11.309649,-5.33524 c 1.741877,-0.82589 1.181827,-3.40163 -0.739629,-3.40163 -1.000658,0 -1.779554,0.78019 -1.781176,1.78412 -0.0021,1.27481 1.377122,2.15978 2.520805,1.61751 z m 23.188654,0.0238 c 1.13301,-0.42391 1.49592,-1.88458 0.694455,-2.79509 -1.057301,-1.20116 -2.950719,-0.60753 -3.116339,0.97703 -0.141079,1.34977 1.127757,2.30226 2.421884,1.81806 z m -11.363108,-4.60378 c 3.962712,-0.69104 5.532549,-5.61583 2.701,-8.4734 -3.225306,-3.25495 -8.695135,-1.00627 -8.672594,3.56535 0.01553,3.15107 2.82159,5.45736 5.971594,4.90805 z m -11.755283,-10.5068 c 1.692153,-0.8641 1.064138,-3.37812 -0.843511,-3.37666 -1.621431,10e-4 -2.346529,2.05622 -1.109686,3.14493 0.498243,0.43857 1.350194,0.53965 1.953197,0.23173 z m 23.270286,-0.003 c 0.928596,-0.47418 1.263227,-1.72344 0.689375,-2.57363 -1.048077,-1.55276 -3.459247,-0.67703 -3.266907,1.18655 0.125604,1.21699 1.481589,1.94671 2.577532,1.38708 z M 67.487325,129.4195 c 1.477209,-0.73613 1.329106,-2.86568 -0.233478,-3.35717 -1.369339,-0.43071 -2.689039,0.95376 -2.208207,2.31659 0.360694,1.02231 1.502144,1.50877 2.441685,1.04058 z"
             id="path2-6-1"
             inkscape:export-filename="Icon_Horizontal.png"
             inkscape:export-xdpi="1000"
             inkscape:export-ydpi="1000" /><path
             d="m 1097.5098,370.98633 v -33.03125 h 5.5312 v 33.03125 z"
             id="text46"
             style="font-size:64px;font-family:'BankGothic Lt BT';-inkscape-font-specification:'BankGothic Lt BT, Normal';text-align:center;letter-spacing:30px;white-space:pre;stroke-width:0.529134;stroke-linejoin:round"
             transform="matrix(0.26458333,0,0,0.26458333,-204.03887,41.54032)"
             aria-label="I" /><path
             d="m 1174.6348,342.23633 h -18.9375 v 11.59375 h 18.9375 q 2.0625,0 2.8125,-0.75 0.75,-0.75 0.75,-2.625 v -4.8125 q 0,-1.875 -0.7813,-2.625 -0.75,-0.78125 -2.7812,-0.78125 z m -24.4688,28.75 v -33.03125 h 26.625 q 3.7188,0 5.3438,1.53125 1.6562,1.5 1.6562,4.875 v 7.375 q 0,3.34375 -1.6562,4.875 -1.625,1.5 -5.3438,1.5 h -4.8437 l 15.0937,12.875 h -8.1875 l -13.4375,-12.875 h -9.7187 v 12.875 z"
             id="text45"
             style="font-size:64px;font-family:'BankGothic Lt BT';-inkscape-font-specification:'BankGothic Lt BT, Normal';text-align:center;letter-spacing:30px;white-space:pre;stroke-width:0.529134;stroke-linejoin:round"
             transform="matrix(0.26458333,0,0,0.26458333,-204.03887,41.54032)"
             aria-label="R" /><path
             d="m 1228.9473,370.98633 v -33.03125 h 5.5312 v 33.03125 z"
             id="text44"
             style="font-size:64px;font-family:'BankGothic Lt BT';-inkscape-font-specification:'BankGothic Lt BT, Normal';text-align:center;letter-spacing:30px;white-space:pre;stroke-width:0.529134;stroke-linejoin:round"
             transform="matrix(0.26458333,0,0,0.26458333,-204.03887,41.54032)"
             aria-label="I" /><path
             d="m 1309.791,342.45508 h -23.375 v 9.21875 h 20.8125 q 4.4063,0 6.0313,1.625 1.625,1.625 1.625,6.15625 v 3.71875 q 0,4.5625 -1.5938,6.1875 -1.5937,1.625 -6.0625,1.625 h -19.2812 q -4.5,0 -6.125,-1.625 -1.625,-1.65625 -1.625,-6.1875 v -0.90625 l 5.125,-1.1875 v 5.3125 h 24.5937 v -9.9375 h -20.75 q -4.5,0 -6.0937,-1.625 -1.5938,-1.65625 -1.5938,-6.1875 v -2.875 q 0,-4.53125 1.5938,-6.15625 1.5937,-1.65625 6.0937,-1.65625 h 17.5938 q 4.4062,0 6.0625,1.625 1.6875,1.59375 1.6875,5.625 v 0.6875 l -4.7188,1.34375 z"
             id="text43"
             style="font-size:64px;font-family:'BankGothic Lt BT';-inkscape-font-specification:'BankGothic Lt BT, Normal';text-align:center;letter-spacing:30px;white-space:pre;stroke-width:0.529134;stroke-linejoin:round"
             transform="matrix(0.26458333,0,0,0.26458333,-204.03887,41.54032)"
             aria-label="S" /><path
             d="m 849.46509,332.61099 v -11.09375 h 1.5625 v 11.09375 z m -2.58594,0 v -1.48437 h 6.75 v 1.48437 z m 0,-9.60937 v -1.48438 h 6.75 v 1.48438 z"
             id="text42"
             style="font-size:16px;font-family:'Cascadia Code';-inkscape-font-specification:'Cascadia Code, Normal';text-align:center;letter-spacing:1.67px;white-space:pre;shape-padding:3.47745;stroke-width:0.529134;stroke-linejoin:round"
             transform="matrix(0.26458333,0,0,0.26458333,-137.70597,58.633305)"
             aria-label="I" /><path
             d="m 862.86163,332.61099 -3.4375,-8.4375 h -0.71875 v -2.65625 h 1.03125 l 3.4375,8.4375 h 0.39063 v 2.65625 z m -5.09375,0 v -11.09375 h 1.5 v 11.09375 z m 5.5625,0 v -11.09375 h 1.5 v 11.09375 z"
             id="text41"
             style="font-size:16px;font-family:'Cascadia Code';-inkscape-font-specification:'Cascadia Code, Normal';text-align:center;letter-spacing:1.67px;white-space:pre;shape-padding:3.47745;stroke-width:0.529134;stroke-linejoin:round"
             transform="matrix(0.26458333,0,0,0.26458333,-137.70597,58.633305)"
             aria-label="N" /><path
             d="m 871.56287,332.61099 v -11.09375 h 1.5625 v 11.09375 z m -3.28125,-9.60937 v -1.48438 h 8.125 v 1.48438 z"
             id="text40"
             style="font-size:16px;font-family:'Cascadia Code';-inkscape-font-specification:'Cascadia Code, Normal';text-align:center;letter-spacing:1.67px;white-space:pre;shape-padding:3.47745;stroke-width:0.529134;stroke-linejoin:round"
             transform="matrix(0.26458333,0,0,0.26458333,-137.70597,58.633305)"
             aria-label="T" /><path
             d="m 879.95166,332.61099 v -11.09375 h 1.5625 v 11.09375 z m 0,0 v -1.48437 h 7.34375 v 1.48437 z m 0,-4.8125 v -1.48437 h 5.9375 v 1.48437 z m 0,-4.79687 v -1.48438 h 7.34375 v 1.48438 z"
             id="text39"
             style="font-size:16px;font-family:'Cascadia Code';-inkscape-font-specification:'Cascadia Code, Normal';text-align:center;letter-spacing:1.67px;white-space:pre;shape-padding:3.47745;stroke-width:0.529134;stroke-linejoin:round"
             transform="matrix(0.26458333,0,0,0.26458333,-137.70597,58.633305)"
             aria-label="E" /><path
             d="m 895.23102,332.76724 q -2.48438,0 -3.72656,-1.42969 -1.24219,-1.42968 -1.24219,-4.28906 0,-2.71094 1.28906,-4.19531 1.28906,-1.49219 3.61719,-1.49219 1.16406,0 2.03906,0.36719 0.875,0.35937 1.28906,1.02344 l -1.16406,1.15625 q -0.35937,-0.53125 -0.90625,-0.82032 -0.53906,-0.28906 -1.16406,-0.28906 -1.57813,0 -2.45313,1.09375 -0.875,1.08594 -0.875,3.07813 0,2.17968 0.875,3.27343 0.875,1.08594 2.60938,1.08594 0.74219,0 1.30469,-0.14062 0.57031,-0.14844 0.92968,-0.25 l 0.60938,1.35937 q -0.32813,0.10156 -1.15625,0.28906 -0.82031,0.17969 -1.875,0.17969 z m 1.54687,-0.46875 v -5.23437 h 1.48438 v 5.23437 z m -2.26562,-3.75 v -1.48437 h 3.70312 v 1.48437 z"
             id="text38"
             style="font-size:16px;font-family:'Cascadia Code';-inkscape-font-specification:'Cascadia Code, Normal';text-align:center;letter-spacing:1.67px;white-space:pre;shape-padding:3.47745;stroke-width:0.529134;stroke-linejoin:round"
             transform="matrix(0.26458333,0,0,0.26458333,-137.70597,58.633305)"
             aria-label="G" /><path
             d="m 903.3385,328.39224 v -1.48437 h 2.35938 q 0.92968,0 1.44531,-0.49219 0.52344,-0.49219 0.52344,-1.38281 0,-0.97657 -0.52344,-1.5 -0.51563,-0.53125 -1.44531,-0.53125 h -2.32813 l -0.1875,-1.48438 h 2.51563 q 1.72656,0 2.66406,0.875 0.94531,0.875 0.94531,2.48438 0,1.67187 -0.94531,2.59375 -0.9375,0.92187 -2.66406,0.92187 z m -1.45312,4.21875 v -11.09375 h 1.5625 v 11.09375 z m 5.95312,0 -2.48437,-5.21875 h 1.71875 l 2.64062,5.21875 z"
             id="text37"
             style="font-size:16px;font-family:'Cascadia Code';-inkscape-font-specification:'Cascadia Code, Normal';text-align:center;letter-spacing:1.67px;white-space:pre;shape-padding:3.47745;stroke-width:0.529134;stroke-linejoin:round"
             transform="matrix(0.26458333,0,0,0.26458333,-137.70597,58.633305)"
             aria-label="R" /><path
             d="m 912.18823,332.61099 3.20313,-11.09375 h 2.26562 l 3.20313,11.09375 h -1.64063 l -2.625,-9.75 h -0.14062 l -2.625,9.75 z m 1.48438,-2.70312 v -1.48438 h 5.625 v 1.48438 z"
             id="text36"
             style="font-size:16px;font-family:'Cascadia Code';-inkscape-font-specification:'Cascadia Code, Normal';text-align:center;letter-spacing:1.67px;white-space:pre;shape-padding:3.47745;stroke-width:0.529134;stroke-linejoin:round"
             transform="matrix(0.26458333,0,0,0.26458333,-137.70597,58.633305)"
             aria-label="A" /><path
             d="m 926.7879,332.61099 v -11.09375 h 1.5625 v 11.09375 z m -3.28125,-9.60937 v -1.48438 h 8.125 v 1.48438 z"
             id="text35"
             style="font-size:16px;font-family:'Cascadia Code';-inkscape-font-specification:'Cascadia Code, Normal';text-align:center;letter-spacing:1.67px;white-space:pre;shape-padding:3.47745;stroke-width:0.529134;stroke-linejoin:round"
             transform="matrix(0.26458333,0,0,0.26458333,-137.70597,58.633305)"
             aria-label="T" /><path
             d="m 936.47351,328.39224 v -1.48437 h 2.35938 q 0.92968,0 1.44531,-0.49219 0.52344,-0.49219 0.52344,-1.38281 0,-0.97657 -0.52344,-1.5 -0.51563,-0.53125 -1.44531,-0.53125 h -2.32813 l -0.1875,-1.48438 h 2.51563 q 1.72656,0 2.66406,0.875 0.94531,0.875 0.94531,2.48438 0,1.67187 -0.94531,2.59375 -0.9375,0.92187 -2.66406,0.92187 z m -1.45312,4.21875 v -11.09375 h 1.5625 v 11.09375 z m 5.95312,0 -2.48437,-5.21875 h 1.71875 l 2.64062,5.21875 z"
             id="text34"
             style="font-size:16px;font-family:'Cascadia Code';-inkscape-font-specification:'Cascadia Code, Normal';text-align:center;letter-spacing:1.67px;white-space:pre;shape-padding:3.47745;stroke-width:0.529134;stroke-linejoin:round"
             transform="matrix(0.26458333,0,0,0.26458333,-137.70597,58.633305)"
             aria-label="R" /><path
             d="m 946.22162,332.61099 v -11.09375 h 1.5625 v 11.09375 z m 0,0 v -1.48437 h 7.34375 v 1.48437 z m 0,-4.8125 v -1.48437 h 5.9375 v 1.48437 z m 0,-4.79687 v -1.48438 h 7.34375 v 1.48438 z"
             id="text33"
             style="font-size:16px;font-family:'Cascadia Code';-inkscape-font-specification:'Cascadia Code, Normal';text-align:center;letter-spacing:1.67px;white-space:pre;shape-padding:3.47745;stroke-width:0.529134;stroke-linejoin:round"
             transform="matrix(0.26458333,0,0,0.26458333,-137.70597,58.633305)"
             aria-label="E" /><path
             d="m 958.56354,332.61099 v -1.48437 h 1.23437 q 1.71094,0 2.57032,-0.97657 0.86718,-0.97656 0.86718,-2.92968 0,-2.11719 -0.86718,-3.16407 -0.85938,-1.05468 -2.57032,-1.05468 h -1.20312 l -0.1875,-1.48438 h 1.39062 q 5.07813,0 5.07813,5.70313 0,5.39062 -5.07813,5.39062 z m -1.45313,0 v -11.09375 h 1.5625 v 11.09375 z"
             id="text32"
             style="font-size:16px;font-family:'Cascadia Code';-inkscape-font-specification:'Cascadia Code, Normal';text-align:center;letter-spacing:1.67px;white-space:pre;shape-padding:3.47745;stroke-width:0.529134;stroke-linejoin:round"
             transform="matrix(0.26458333,0,0,0.26458333,-137.70597,58.633305)"
             aria-label="D" /><path
             d="m 980.6535,328.39224 v -1.48437 h 2.35938 q 0.92969,0 1.44531,-0.49219 0.52344,-0.49219 0.52344,-1.38281 0,-0.97657 -0.52344,-1.5 -0.51562,-0.53125 -1.44531,-0.53125 h -2.32813 l -0.1875,-1.48438 h 2.51563 q 1.72656,0 2.66406,0.875 0.94531,0.875 0.94531,2.48438 0,1.67187 -0.94531,2.59375 -0.9375,0.92187 -2.66406,0.92187 z m -1.45312,4.21875 v -11.09375 h 1.5625 v 11.09375 z m 5.95312,0 -2.48437,-5.21875 h 1.71875 l 2.64062,5.21875 z"
             id="text31"
             style="font-size:16px;font-family:'Cascadia Code';-inkscape-font-specification:'Cascadia Code, Normal';text-align:center;letter-spacing:1.67px;white-space:pre;shape-padding:3.47745;stroke-width:0.529134;stroke-linejoin:round"
             transform="matrix(0.26458333,0,0,0.26458333,-137.70597,58.633305)"
             aria-label="R" /><path
             d="m 990.40167,332.61099 v -11.09375 h 1.5625 v 11.09375 z m 0,0 v -1.48437 h 7.34375 v 1.48437 z m 0,-4.8125 v -1.48437 h 5.9375 v 1.48437 z m 0,-4.79687 v -1.48438 h 7.34375 v 1.48438 z"
             id="text30"
             style="font-size:16px;font-family:'Cascadia Code';-inkscape-font-specification:'Cascadia Code, Normal';text-align:center;letter-spacing:1.67px;white-space:pre;shape-padding:3.47745;stroke-width:0.529134;stroke-linejoin:round"
             transform="matrix(0.26458333,0,0,0.26458333,-137.70597,58.633305)"
             aria-label="E" /><path
             d="m 1004.5013,332.76724 q -0.9453,0 -1.7735,-0.15625 -0.8203,-0.14844 -1.5234,-0.45312 l 0.2031,-1.57813 q 0.8594,0.36719 1.6563,0.5625 0.8047,0.1875 1.5625,0.1875 1.0937,0 1.625,-0.38281 0.5312,-0.38281 0.5312,-1.16406 0,-0.99219 -1.0156,-1.45313 l -1.9219,-0.875 q -1.1328,-0.51562 -1.7422,-1.24219 -0.6015,-0.72656 -0.6015,-1.80468 0,-1.45313 0.875,-2.25 0.875,-0.79688 2.4765,-0.79688 1.1172,0 1.9766,0.32813 0.8594,0.32812 1.6563,1.07031 l -1.0938,1.10937 q -0.6875,-0.5625 -1.2891,-0.8125 -0.5937,-0.25781 -1.2421,-0.25781 -0.8047,0 -1.25,0.39063 -0.4375,0.38281 -0.4375,1.14062 0,0.53906 0.289,0.88281 0.2891,0.33594 0.8516,0.60157 l 1.625,0.76562 q 1.2344,0.57813 1.875,1.30469 0.6406,0.72656 0.6406,1.86719 0,1.50781 -0.9844,2.26562 -0.9765,0.75 -2.9687,0.75 z"
             id="text29"
             style="font-size:16px;font-family:'Cascadia Code';-inkscape-font-specification:'Cascadia Code, Normal';text-align:center;letter-spacing:1.67px;white-space:pre;shape-padding:3.47745;stroke-width:0.529134;stroke-linejoin:round"
             transform="matrix(0.26458333,0,0,0.26458333,-137.70597,58.633305)"
             aria-label="S" /><path
             d="m 1015.9291,332.76724 q -4.0938,0 -4.0938,-5.625 0,-5.78125 4.0938,-5.78125 4.0937,0 4.0937,5.78125 0,5.625 -4.0937,5.625 z m 0,-1.4375 q 2.4531,0 2.4531,-4.1875 0,-4.34375 -2.4531,-4.34375 -2.4531,0 -2.4531,4.34375 0,4.1875 2.4531,4.1875 z"
             id="text28"
             style="font-size:16px;font-family:'Cascadia Code';-inkscape-font-specification:'Cascadia Code, Normal';text-align:center;letter-spacing:1.67px;white-space:pre;shape-padding:3.47745;stroke-width:0.529134;stroke-linejoin:round"
             transform="matrix(0.26458333,0,0,0.26458333,-137.70597,58.633305)"
             aria-label="O" /><path
             d="m 1026.9429,332.76724 q -3.5625,0 -3.5625,-3.71875 v -7.53125 h 1.5625 v 7.53125 q 0,1.10938 0.4843,1.67188 0.4922,0.5625 1.5469,0.5625 2.0313,0 2.0313,-2.23438 v -7.53125 h 1.5625 v 7.53125 q 0,1.85938 -0.9219,2.78906 -0.9219,0.92969 -2.7031,0.92969 z"
             id="text27"
             style="font-size:16px;font-family:'Cascadia Code';-inkscape-font-specification:'Cascadia Code, Normal';text-align:center;letter-spacing:1.67px;white-space:pre;shape-padding:3.47745;stroke-width:0.529134;stroke-linejoin:round"
             transform="matrix(0.26458333,0,0,0.26458333,-137.70597,58.633305)"
             aria-label="U" /><path
             d="m 1035.8784,328.39224 v -1.48437 h 2.3594 q 0.9297,0 1.4453,-0.49219 0.5234,-0.49219 0.5234,-1.38281 0,-0.97657 -0.5234,-1.5 -0.5156,-0.53125 -1.4453,-0.53125 h -2.3281 l -0.1875,-1.48438 h 2.5156 q 1.7266,0 2.6641,0.875 0.9453,0.875 0.9453,2.48438 0,1.67187 -0.9453,2.59375 -0.9375,0.92187 -2.6641,0.92187 z m -1.4531,4.21875 v -11.09375 h 1.5625 v 11.09375 z m 5.9531,0 -2.4844,-5.21875 h 1.7188 l 2.6406,5.21875 z"
             id="text26"
             style="font-size:16px;font-family:'Cascadia Code';-inkscape-font-specification:'Cascadia Code, Normal';text-align:center;letter-spacing:1.67px;white-space:pre;shape-padding:3.47745;stroke-width:0.529134;stroke-linejoin:round"
             transform="matrix(0.26458333,0,0,0.26458333,-137.70597,58.633305)"
             aria-label="R" /><path
             d="m 1050.2203,332.76724 q -5.1718,0 -5.1718,-5.71875 0,-2.71094 1.3046,-4.19531 1.3047,-1.49219 3.6797,-1.49219 1.1485,0 2,0.36719 0.8516,0.35937 1.2422,1.03125 l -1.1562,1.14844 q -0.3516,-0.53125 -0.8985,-0.82032 -0.539,-0.28906 -1.1718,-0.28906 -1.5079,0 -2.4219,1.08594 -0.9063,1.08594 -0.9063,3.08594 0,4.35937 3.7657,4.35937 1.1328,0 2.2343,-0.46875 l 0.3594,1.375 q -1.3594,0.53125 -2.8594,0.53125 z"
             id="text25"
             style="font-size:16px;font-family:'Cascadia Code';-inkscape-font-specification:'Cascadia Code, Normal';text-align:center;letter-spacing:1.67px;white-space:pre;shape-padding:3.47745;stroke-width:0.529134;stroke-linejoin:round"
             transform="matrix(0.26458333,0,0,0.26458333,-137.70597,58.633305)"
             aria-label="C" /><path
             d="m 1056.6716,332.61099 v -11.09375 h 1.5625 v 11.09375 z m 0,0 v -1.48437 h 7.3438 v 1.48437 z m 0,-4.8125 v -1.48437 h 5.9375 v 1.48437 z m 0,-4.79687 v -1.48438 h 7.3438 v 1.48438 z"
             id="text24"
             style="font-size:16px;font-family:'Cascadia Code';-inkscape-font-specification:'Cascadia Code, Normal';text-align:center;letter-spacing:1.67px;white-space:pre;shape-padding:3.47745;stroke-width:0.529134;stroke-linejoin:round"
             transform="matrix(0.26458333,0,0,0.26458333,-137.70597,58.633305)"
             aria-label="E" /><path
             d="m 849.27509,332.61099 v -11.09375 h 1.5625 v 11.09375 z m -2.58594,0 v -1.48437 h 6.75 v 1.48437 z m 0,-9.60937 v -1.48438 h 6.75 v 1.48438 z"
             id="text23"
             style="font-size:16px;font-family:'Cascadia Code';-inkscape-font-specification:'Cascadia Code, Normal';text-align:center;letter-spacing:1.69px;white-space:pre;shape-padding:3.47745;stroke-width:0.529134;stroke-linejoin:round"
             transform="matrix(0.26458333,0,0,0.26458333,-137.65739,63.23236)"
             aria-label="I" /><path
             d="m 862.69165,332.61099 -3.4375,-8.4375 h -0.71875 v -2.65625 h 1.03125 l 3.4375,8.4375 h 0.39063 v 2.65625 z m -5.09375,0 v -11.09375 h 1.5 v 11.09375 z m 5.5625,0 v -11.09375 h 1.5 v 11.09375 z"
             id="text22"
             style="font-size:16px;font-family:'Cascadia Code';-inkscape-font-specification:'Cascadia Code, Normal';text-align:center;letter-spacing:1.69px;white-space:pre;shape-padding:3.47745;stroke-width:0.529134;stroke-linejoin:round"
             transform="matrix(0.26458333,0,0,0.26458333,-137.65739,63.23236)"
             aria-label="N" /><path
             d="m 871.4129,332.61099 v -11.09375 h 1.5625 v 11.09375 z m -3.28125,-9.60937 v -1.48438 h 8.125 v 1.48438 z"
             id="text21"
             style="font-size:16px;font-family:'Cascadia Code';-inkscape-font-specification:'Cascadia Code, Normal';text-align:center;letter-spacing:1.69px;white-space:pre;shape-padding:3.47745;stroke-width:0.529134;stroke-linejoin:round"
             transform="matrix(0.26458333,0,0,0.26458333,-137.65739,63.23236)"
             aria-label="T" /><path
             d="m 879.82166,332.61099 v -11.09375 h 1.5625 v 11.09375 z m 0,0 v -1.48437 h 7.34375 v 1.48437 z m 0,-4.8125 v -1.48437 h 5.9375 v 1.48437 z m 0,-4.79687 v -1.48438 h 7.34375 v 1.48438 z"
             id="text20"
             style="font-size:16px;font-family:'Cascadia Code';-inkscape-font-specification:'Cascadia Code, Normal';text-align:center;letter-spacing:1.69px;white-space:pre;shape-padding:3.47745;stroke-width:0.529134;stroke-linejoin:round"
             transform="matrix(0.26458333,0,0,0.26458333,-137.65739,63.23236)"
             aria-label="E" /><path
             d="m 890.88666,332.61099 v -11.09375 h 1.5625 v 11.09375 z m 0,0 v -1.48437 h 7.34375 v 1.48437 z"
             id="text19"
             style="font-size:16px;font-family:'Cascadia Code';-inkscape-font-specification:'Cascadia Code, Normal';text-align:center;letter-spacing:1.69px;white-space:pre;shape-padding:3.47745;stroke-width:0.529134;stroke-linejoin:round"
             transform="matrix(0.26458333,0,0,0.26458333,-137.65739,63.23236)"
             aria-label="L" /><path
             d="m 901.95166,332.61099 v -11.09375 h 1.5625 v 11.09375 z m 0,0 v -1.48437 h 7.34375 v 1.48437 z"
             id="text18"
             style="font-size:16px;font-family:'Cascadia Code';-inkscape-font-specification:'Cascadia Code, Normal';text-align:center;letter-spacing:1.69px;white-space:pre;shape-padding:3.47745;stroke-width:0.529134;stroke-linejoin:round"
             transform="matrix(0.26458333,0,0,0.26458333,-137.65739,63.23236)"
             aria-label="L" /><path
             d="m 915.6651,332.61099 v -11.09375 h 1.5625 v 11.09375 z m -2.58594,0 v -1.48437 h 6.75 v 1.48437 z m 0,-9.60937 v -1.48438 h 6.75 v 1.48438 z"
             id="text17"
             style="font-size:16px;font-family:'Cascadia Code';-inkscape-font-specification:'Cascadia Code, Normal';text-align:center;letter-spacing:1.69px;white-space:pre;shape-padding:3.47745;stroke-width:0.529134;stroke-linejoin:round"
             transform="matrix(0.26458333,0,0,0.26458333,-137.65739,63.23236)"
             aria-label="I" /><path
             d="m 924.08167,332.61099 v -11.09375 h 1.5625 v 11.09375 z m 0,0 v -1.48437 h 7.34375 v 1.48437 z m 0,-4.8125 v -1.48437 h 5.9375 v 1.48437 z m 0,-4.79687 v -1.48438 h 7.34375 v 1.48438 z"
             id="text16"
             style="font-size:16px;font-family:'Cascadia Code';-inkscape-font-specification:'Cascadia Code, Normal';text-align:center;letter-spacing:1.69px;white-space:pre;shape-padding:3.47745;stroke-width:0.529134;stroke-linejoin:round"
             transform="matrix(0.26458333,0,0,0.26458333,-137.65739,63.23236)"
             aria-label="E" /><path
             d="m 939.38104,332.76724 q -2.48437,0 -3.72656,-1.42969 -1.24219,-1.42968 -1.24219,-4.28906 0,-2.71094 1.28906,-4.19531 1.28907,-1.49219 3.61719,-1.49219 1.16406,0 2.03906,0.36719 0.875,0.35937 1.28907,1.02344 l -1.16407,1.15625 q -0.35937,-0.53125 -0.90625,-0.82032 -0.53906,-0.28906 -1.16406,-0.28906 -1.57812,0 -2.45312,1.09375 -0.875,1.08594 -0.875,3.07813 0,2.17968 0.875,3.27343 0.875,1.08594 2.60937,1.08594 0.74219,0 1.30469,-0.14062 0.57031,-0.14844 0.92969,-0.25 l 0.60937,1.35937 q -0.32812,0.10156 -1.15625,0.28906 -0.82031,0.17969 -1.875,0.17969 z m 1.54688,-0.46875 v -5.23437 h 1.48437 v 5.23437 z m -2.26563,-3.75 v -1.48437 h 3.70313 v 1.48437 z"
             id="text15"
             style="font-size:16px;font-family:'Cascadia Code';-inkscape-font-specification:'Cascadia Code, Normal';text-align:center;letter-spacing:1.69px;white-space:pre;shape-padding:3.47745;stroke-width:0.529134;stroke-linejoin:round"
             transform="matrix(0.26458333,0,0,0.26458333,-137.65739,63.23236)"
             aria-label="G" /><path
             d="m 946.21167,332.61099 v -11.09375 h 1.5625 v 11.09375 z m 0,0 v -1.48437 h 7.34375 v 1.48437 z m 0,-4.8125 v -1.48437 h 5.9375 v 1.48437 z m 0,-4.79687 v -1.48438 h 7.34375 v 1.48438 z"
             id="text14"
             style="font-size:16px;font-family:'Cascadia Code';-inkscape-font-specification:'Cascadia Code, Normal';text-align:center;letter-spacing:1.69px;white-space:pre;shape-padding:3.47745;stroke-width:0.529134;stroke-linejoin:round"
             transform="matrix(0.26458333,0,0,0.26458333,-137.65739,63.23236)"
             aria-label="E" /><path
             d="m 962.27661,332.61099 -3.4375,-8.4375 h -0.71875 v -2.65625 h 1.03125 l 3.4375,8.4375 h 0.39063 v 2.65625 z m -5.09375,0 v -11.09375 h 1.5 v 11.09375 z m 5.5625,0 v -11.09375 h 1.5 v 11.09375 z"
             id="text13"
             style="font-size:16px;font-family:'Cascadia Code';-inkscape-font-specification:'Cascadia Code, Normal';text-align:center;letter-spacing:1.69px;white-space:pre;shape-padding:3.47745;stroke-width:0.529134;stroke-linejoin:round"
             transform="matrix(0.26458333,0,0,0.26458333,-137.65739,63.23236)"
             aria-label="N" /><path
             d="m 972.93536,332.76724 q -5.17187,0 -5.17187,-5.71875 0,-2.71094 1.30469,-4.19531 1.30468,-1.49219 3.67968,-1.49219 1.14844,0 2,0.36719 0.85157,0.35937 1.24219,1.03125 l -1.15625,1.14844 q -0.35156,-0.53125 -0.89844,-0.82032 -0.53906,-0.28906 -1.17187,-0.28906 -1.50781,0 -2.42188,1.08594 -0.90625,1.08594 -0.90625,3.08594 0,4.35937 3.76563,4.35937 1.13281,0 2.23437,-0.46875 l 0.35938,1.375 q -1.35938,0.53125 -2.85938,0.53125 z"
             id="text12"
             style="font-size:16px;font-family:'Cascadia Code';-inkscape-font-specification:'Cascadia Code, Normal';text-align:center;letter-spacing:1.69px;white-space:pre;shape-padding:3.47745;stroke-width:0.529134;stroke-linejoin:round"
             transform="matrix(0.26458333,0,0,0.26458333,-137.65739,63.23236)"
             aria-label="C" /><path
             d="m 979.40662,332.61099 v -11.09375 h 1.5625 v 11.09375 z m 0,0 v -1.48437 h 7.34375 v 1.48437 z m 0,-4.8125 v -1.48437 h 5.9375 v 1.48437 z m 0,-4.79687 v -1.48438 h 7.34375 v 1.48438 z"
             id="text11"
             style="font-size:16px;font-family:'Cascadia Code';-inkscape-font-specification:'Cascadia Code, Normal';text-align:center;letter-spacing:1.69px;white-space:pre;shape-padding:3.47745;stroke-width:0.529134;stroke-linejoin:round"
             transform="matrix(0.26458333,0,0,0.26458333,-137.65739,63.23236)"
             aria-label="E" /><path
             d="m 1004.5913,332.76724 q -0.9453,0 -1.7734,-0.15625 -0.8203,-0.14844 -1.5235,-0.45312 l 0.2032,-1.57813 q 0.8593,0.36719 1.6562,0.5625 0.8047,0.1875 1.5625,0.1875 1.0938,0 1.625,-0.38281 0.5313,-0.38281 0.5313,-1.16406 0,-0.99219 -1.0157,-1.45313 l -1.9218,-0.875 q -1.1329,-0.51562 -1.7422,-1.24219 -0.6016,-0.72656 -0.6016,-1.80468 0,-1.45313 0.875,-2.25 0.875,-0.79688 2.4766,-0.79688 1.1172,0 1.9765,0.32813 0.8594,0.32812 1.6563,1.07031 l -1.0938,1.10937 q -0.6875,-0.5625 -1.289,-0.8125 -0.5938,-0.25781 -1.2422,-0.25781 -0.8047,0 -1.25,0.39063 -0.4375,0.38281 -0.4375,1.14062 0,0.53906 0.289,0.88281 0.2891,0.33594 0.8516,0.60157 l 1.625,0.76562 q 1.2344,0.57813 1.875,1.30469 0.6406,0.72656 0.6406,1.86719 0,1.50781 -0.9843,2.26562 -0.9766,0.75 -2.9688,0.75 z"
             id="text10"
             style="font-size:16px;font-family:'Cascadia Code';-inkscape-font-specification:'Cascadia Code, Normal';text-align:center;letter-spacing:1.69px;white-space:pre;shape-padding:3.47745;stroke-width:0.529134;stroke-linejoin:round"
             transform="matrix(0.26458333,0,0,0.26458333,-137.65739,63.23236)"
             aria-label="S" /><path
             d="m 1015.3751,328.90787 -3.8282,-7.39063 h 1.7188 l 2.7031,5.54688 h 0.1406 l 2.7032,-5.54688 h 1.7187 l -3.8281,7.39063 z m -0.1172,3.70312 v -5.46875 h 1.5625 v 5.46875 z"
             id="text9"
             style="font-size:16px;font-family:'Cascadia Code';-inkscape-font-specification:'Cascadia Code, Normal';text-align:center;letter-spacing:1.69px;white-space:pre;shape-padding:3.47745;stroke-width:0.529134;stroke-linejoin:round"
             transform="matrix(0.26458333,0,0,0.26458333,-137.65739,63.23236)"
             aria-label="Y" /><path
             d="m 1026.7213,332.76724 q -0.9453,0 -1.7734,-0.15625 -0.8203,-0.14844 -1.5235,-0.45312 l 0.2032,-1.57813 q 0.8593,0.36719 1.6562,0.5625 0.8047,0.1875 1.5625,0.1875 1.0938,0 1.625,-0.38281 0.5313,-0.38281 0.5313,-1.16406 0,-0.99219 -1.0157,-1.45313 l -1.9218,-0.875 q -1.1328,-0.51562 -1.7422,-1.24219 -0.6016,-0.72656 -0.6016,-1.80468 0,-1.45313 0.875,-2.25 0.875,-0.79688 2.4766,-0.79688 1.1172,0 1.9765,0.32813 0.8594,0.32812 1.6563,1.07031 l -1.0938,1.10937 q -0.6875,-0.5625 -1.289,-0.8125 -0.5938,-0.25781 -1.2422,-0.25781 -0.8047,0 -1.25,0.39063 -0.4375,0.38281 -0.4375,1.14062 0,0.53906 0.2891,0.88281 0.289,0.33594 0.8515,0.60157 l 1.625,0.76562 q 1.2344,0.57813 1.875,1.30469 0.6406,0.72656 0.6406,1.86719 0,1.50781 -0.9843,2.26562 -0.9766,0.75 -2.9688,0.75 z"
             id="text8"
             style="font-size:16px;font-family:'Cascadia Code';-inkscape-font-specification:'Cascadia Code, Normal';text-align:center;letter-spacing:1.69px;white-space:pre;shape-padding:3.47745;stroke-width:0.529134;stroke-linejoin:round"
             transform="matrix(0.26458333,0,0,0.26458333,-137.65739,63.23236)"
             aria-label="S" /><path
             d="m 1037.3878,332.61099 v -11.09375 h 1.5625 v 11.09375 z m -3.2812,-9.60937 v -1.48438 h 8.125 v 1.48438 z"
             id="text7"
             style="font-size:16px;font-family:'Cascadia Code';-inkscape-font-specification:'Cascadia Code, Normal';text-align:center;letter-spacing:1.69px;white-space:pre;shape-padding:3.47745;stroke-width:0.529134;stroke-linejoin:round"
             transform="matrix(0.26458333,0,0,0.26458333,-137.65739,63.23236)"
             aria-label="T" /><path
             d="m 1045.7966,332.61099 v -11.09375 h 1.5625 v 11.09375 z m 0,0 v -1.48437 h 7.3438 v 1.48437 z m 0,-4.8125 v -1.48437 h 5.9375 v 1.48437 z m 0,-4.79687 v -1.48438 h 7.3438 v 1.48438 z"
             id="text6"
             style="font-size:16px;font-family:'Cascadia Code';-inkscape-font-specification:'Cascadia Code, Normal';text-align:center;letter-spacing:1.69px;white-space:pre;shape-padding:3.47745;stroke-width:0.529134;stroke-linejoin:round"
             transform="matrix(0.26458333,0,0,0.26458333,-137.65739,63.23236)"
             aria-label="E" /><path
             d="m 1060.0334,328.07974 0.2344,-1.79687 h 0.094 l 1.2656,-4.76563 h 1.1094 v 1.96875 h -0.4532 l -1.2656,4.59375 z m -3.4218,4.53125 v -11.09375 h 1.5 v 11.09375 z m 2.9687,-4.53125 -1.2656,-4.59375 h -0.4531 v -1.96875 h 1.1093 l 1.2657,4.76563 h 0.062 l 0.1562,1.79687 z m 2.9063,4.53125 v -11.09375 h 1.5 v 11.09375 z"
             id="text5"
             style="font-size:16px;font-family:'Cascadia Code';-inkscape-font-specification:'Cascadia Code, Normal';text-align:center;letter-spacing:1.69px;white-space:pre;shape-padding:3.47745;stroke-width:0.529134;stroke-linejoin:round"
             transform="matrix(0.26458333,0,0,0.26458333,-137.65739,63.23236)"
             aria-label="M" /></g><path
           style="fill:#384eaa;fill-opacity:1;stroke:#000000;stroke-width:0.554;stroke-dasharray:none;stroke-opacity:1"
           d="m 75.236571,144.12694 c -3.316768,-0.72005 -3.411467,-5.46087 -0.130075,-6.51187 0.107828,-0.0345 0.117668,-0.17512 0.117668,-1.68085 v -1.64315 l -0.353004,-0.046 c -1.177696,-0.15353 -2.855874,-1.02962 -3.603659,-1.88131 l -0.203773,-0.23207 -1.754423,1.15743 c -1.735712,1.1451 -1.753991,1.1596 -1.714174,1.35916 0.839677,4.2083 -4.44318,6.17468 -6.276151,2.33611 -1.437279,-3.00992 2.408647,-6.06768 5.046663,-4.01242 l 0.304838,0.23749 1.099801,-0.71823 c 2.100305,-1.37161 2.34372,-1.53965 2.34372,-1.61794 0,-0.0433 -0.08747,-0.27368 -0.194382,-0.51196 -0.625162,-1.39337 -0.7046,-3.2303 -0.202045,-4.67213 0.07422,-0.21293 0.151607,-0.43891 0.171979,-0.50217 0.02876,-0.0893 -0.186338,-0.26037 -0.961892,-0.76496 -0.549409,-0.35746 -1.267976,-0.82918 -1.596812,-1.04828 l -0.597886,-0.39835 -0.175363,0.16529 c -2.560757,2.41354 -6.700807,-0.73827 -5.193835,-3.95406 1.759765,-3.75524 7.200501,-1.64471 6.231426,2.41725 -0.03312,0.13882 0.259804,0.34695 2.335884,1.65971 0.818527,0.51758 0.803686,0.51273 0.940383,0.30703 0.635934,-0.95698 2.142403,-1.9007 3.599403,-2.25483 l 0.751213,-0.18259 7.82e-4,-1.81545 7.81e-4,-1.81546 -0.463289,-0.18998 c -3.710284,-1.52155 -2.058377,-7.16403 1.883378,-6.43313 3.281716,0.60851 3.676517,5.26369 0.548076,6.46247 l -0.419257,0.16064 -9.94e-4,1.83227 c -9.95e-4,1.74595 0.005,1.83226 0.12487,1.83226 1.021592,0 2.848739,0.93666 3.889428,1.99384 0.303863,0.30869 0.56632,0.56124 0.583237,0.56124 0.122642,0 3.095453,-2.0286 3.075221,-2.09848 -1.161371,-4.01184 4.439916,-6.174 6.238461,-2.40812 1.481272,3.10157 -2.4639,6.17214 -5.140686,4.00104 l -0.272127,-0.22072 -1.584587,1.05234 -1.584586,1.05234 0.114638,0.26896 c 0.599929,1.40747 0.551881,3.43761 -0.118158,4.99245 -0.131467,0.30507 -0.226406,0.56546 -0.210975,0.57863 0.07704,0.0658 3.20819,2.11667 3.332074,2.18253 0.122863,0.0653 0.187224,0.0433 0.442385,-0.15158 3.240971,-2.47466 7.205074,2.16855 4.317028,5.0566 -2.354664,2.35467 -6.458969,0.006 -5.589337,-3.19833 0.09298,-0.34262 0.09119,-0.36054 -0.04559,-0.45723 -0.445154,-0.31466 -3.301263,-2.17831 -3.338338,-2.17831 -0.02434,0 -0.268337,0.19864 -0.542185,0.44141 -0.961233,0.85218 -2.044357,1.39241 -3.171397,1.58178 l -0.520357,0.0874 v 1.66786 c 0,1.55369 0.0082,1.66786 0.119564,1.66786 0.26529,0 1.105917,0.47714 1.449409,0.82267 2.393802,2.40807 0.215359,6.38428 -3.103063,5.66388 z m 1.177775,-1.51374 c 1.998699,-0.43429 1.695635,-3.51835 -0.3462,-3.52301 -2.3999,-0.006 -2.486978,3.4314 -0.09085,3.58576 0.0629,0.004 0.259572,-0.0241 0.437053,-0.0627 z m -11.309649,-5.33524 c 1.741877,-0.82589 1.181827,-3.40163 -0.739629,-3.40163 -1.000658,0 -1.779554,0.78019 -1.781176,1.78412 -0.0021,1.27481 1.377122,2.15978 2.520805,1.61751 z m 23.188654,0.0238 c 1.13301,-0.42391 1.49592,-1.88458 0.694455,-2.79509 -1.057301,-1.20116 -2.950719,-0.60753 -3.116339,0.97703 -0.141079,1.34977 1.127757,2.30226 2.421884,1.81806 z m -11.363108,-4.60378 c 3.962712,-0.69104 5.532549,-5.61583 2.701,-8.4734 -3.225306,-3.25495 -8.695135,-1.00627 -8.672594,3.56535 0.01553,3.15107 2.82159,5.45736 5.971594,4.90805 z M 65.17496,122.19118 c 1.692153,-0.8641 1.064138,-3.37812 -0.843511,-3.37666 -1.621431,0.001 -2.346529,2.05622 -1.109686,3.14493 0.498243,0.43857 1.350194,0.53965 1.953197,0.23173 z m 23.270286,-0.003 c 0.928596,-0.47418 1.263227,-1.72344 0.689375,-2.57363 -1.048077,-1.55276 -3.459247,-0.67703 -3.266907,1.18655 0.125604,1.21699 1.481589,1.94671 2.577532,1.38708 z m -11.688537,-6.37245 c 1.477209,-0.73613 1.329106,-2.86568 -0.233478,-3.35717 -1.369339,-0.43071 -2.689039,0.95376 -2.208207,2.31659 0.360694,1.02231 1.502144,1.50877 2.441685,1.04058 z"
           id="path2-6-1-3"
           inkscape:export-filename="Icon_Horizontal.svg"
           inkscape:export-xdpi="1000"
           inkscape:export-ydpi="1000" /><g
           id="g49"
           transform="translate(0.39035449,0.61805576)"><g
             id="g48"
             transform="matrix(1,0,0,1.178662,0.06505908,-20.836561)"><path
               d="m 99.777092,126.09342 v -8.73951 h 1.463458 v 8.73951 z"
               id="text46-8"
               style="font-size:64px;font-family:'BankGothic Lt BT';-inkscape-font-specification:'BankGothic Lt BT, Normal';text-align:center;letter-spacing:30px;white-space:pre;stroke-width:0.14;stroke-linejoin:round"
               aria-label="I" /><path
               d="m 120.18308,118.48665 h -5.01055 v 3.06752 h 5.01055 q 0.5457,0 0.74414,-0.19844 0.19844,-0.19844 0.19844,-0.69453 v -1.27331 q 0,-0.49609 -0.20672,-0.69453 -0.19844,-0.20671 -0.73586,-0.20671 z m -6.47404,7.60677 v -8.73951 h 7.04453 q 0.98393,0 1.41388,0.40514 0.4382,0.39687 0.4382,1.28984 v 1.95131 q 0,0.8847 -0.4382,1.28984 -0.42995,0.39687 -1.41388,0.39687 h -1.28156 l 3.99354,3.40651 h -2.16628 l -3.55533,-3.40651 h -2.57141 v 3.40651 z"
               id="text45-0"
               style="font-size:64px;font-family:'BankGothic Lt BT';-inkscape-font-specification:'BankGothic Lt BT, Normal';text-align:center;letter-spacing:30px;white-space:pre;stroke-width:0.14;stroke-linejoin:round"
               aria-label="R" /><path
               d="m 134.55326,126.09342 v -8.73951 h 1.46346 v 8.73951 z"
               id="text44-8"
               style="font-size:64px;font-family:'BankGothic Lt BT';-inkscape-font-specification:'BankGothic Lt BT, Normal';text-align:center;letter-spacing:30px;white-space:pre;stroke-width:0.14;stroke-linejoin:round"
               aria-label="I" /><path
               d="m 155.94315,118.54453 h -6.18463 v 2.43913 h 5.50664 q 1.16583,0 1.59578,0.42995 0.42995,0.42994 0.42995,1.62884 v 0.98392 q 0,1.20716 -0.42169,1.63711 -0.42167,0.42994 -1.60404,0.42994 h -5.10148 q -1.19063,0 -1.62058,-0.42994 -0.42995,-0.43822 -0.42995,-1.63711 v -0.23978 l 1.35599,-0.31419 v 1.40559 h 6.50709 v -2.62929 h -5.49011 q -1.19062,0 -1.61229,-0.42995 -0.42169,-0.43822 -0.42169,-1.63711 v -0.76068 q 0,-1.19889 0.42169,-1.62884 0.42167,-0.43821 1.61229,-0.43821 h 4.65503 q 1.16581,0 1.60404,0.42994 0.44648,0.42168 0.44648,1.48829 v 0.1819 l -1.24852,0.35553 z"
               id="text43-8"
               style="font-size:64px;font-family:'BankGothic Lt BT';-inkscape-font-specification:'BankGothic Lt BT, Normal';text-align:center;letter-spacing:30px;white-space:pre;stroke-width:0.14;stroke-linejoin:round"
               aria-label="S" /></g><g
             id="g47"
             transform="matrix(1,0,0,0.82063388,0,23.327696)"><path
               d="m 100.48149,133.03293 v -2.93522 h 0.41341 v 2.93522 z m -0.684188,0 v -0.39274 h 1.785928 v 0.39274 z m 0,-2.54247 v -0.39275 h 1.785928 v 0.39275 z"
               id="text42-0"
               style="font-size:16px;font-family:'Cascadia Code';-inkscape-font-specification:'Cascadia Code, Normal';text-align:center;letter-spacing:1.67px;white-space:pre;shape-padding:3.47745;stroke-width:0;stroke-linejoin:round;stroke-dasharray:none"
               aria-label="I" /><path
               d="m 104.02599,133.03293 -0.9095,-2.23242 h -0.19017 v -0.7028 h 0.27285 l 0.90951,2.23242 h 0.10335 v 0.7028 z m -1.34772,0 v -2.93522 h 0.39688 v 2.93522 z m 1.47175,0 v -2.93522 h 0.39687 v 2.93522 z"
               id="text41-6"
               style="font-size:16px;font-family:'Cascadia Code';-inkscape-font-specification:'Cascadia Code, Normal';text-align:center;letter-spacing:1.67px;white-space:pre;shape-padding:3.47745;stroke-width:0;stroke-linejoin:round;stroke-dasharray:none"
               aria-label="N" /><path
               d="m 106.3282,133.03293 v -2.93522 h 0.41341 v 2.93522 z m -0.86817,-2.54247 v -0.39275 h 2.14974 v 0.39275 z"
               id="text40-8"
               style="font-size:16px;font-family:'Cascadia Code';-inkscape-font-specification:'Cascadia Code, Normal';text-align:center;letter-spacing:1.67px;white-space:pre;shape-padding:3.47745;stroke-width:0;stroke-linejoin:round;stroke-dasharray:none"
               aria-label="T" /><path
               d="m 108.54773,133.03293 v -2.93522 h 0.41341 v 2.93522 z m 0,0 v -0.39274 h 1.94303 v 0.39274 z m 0,-1.2733 v -0.39274 h 1.57096 v 0.39274 z m 0,-1.26917 v -0.39275 h 1.94303 v 0.39275 z"
               id="text39-1"
               style="font-size:16px;font-family:'Cascadia Code';-inkscape-font-specification:'Cascadia Code, Normal';text-align:center;letter-spacing:1.67px;white-space:pre;shape-padding:3.47745;stroke-width:0;stroke-linejoin:round;stroke-dasharray:none"
               aria-label="E" /><path
               d="m 112.59039,133.07428 q -0.65732,0 -0.98598,-0.37828 -0.32866,-0.37827 -0.32866,-1.13481 0,-0.71727 0.34106,-1.11001 0.34106,-0.39481 0.95705,-0.39481 0.30799,0 0.5395,0.0971 0.23151,0.0951 0.34106,0.27079 l -0.30799,0.30592 q -0.0951,-0.14056 -0.23978,-0.21704 -0.14262,-0.0765 -0.30799,-0.0765 -0.41754,0 -0.64905,0.28939 -0.23152,0.28732 -0.23152,0.81442 0,0.57671 0.23152,0.8661 0.23151,0.28732 0.69039,0.28732 0.19637,0 0.3452,-0.0372 0.1509,-0.0393 0.24598,-0.0661 l 0.16123,0.35966 q -0.0868,0.0269 -0.30592,0.0765 -0.21704,0.0476 -0.4961,0.0476 z m 0.40928,-0.12403 v -1.38493 h 0.39274 v 1.38493 z m -0.59944,-0.99219 v -0.39274 h 0.97978 v 0.39274 z"
               id="text38-9"
               style="font-size:16px;font-family:'Cascadia Code';-inkscape-font-specification:'Cascadia Code, Normal';text-align:center;letter-spacing:1.67px;white-space:pre;shape-padding:3.47745;stroke-width:0;stroke-linejoin:round;stroke-dasharray:none"
               aria-label="G" /><path
               d="m 114.7355,131.91672 v -0.39274 h 0.62425 q 0.24598,0 0.38241,-0.13022 0.13849,-0.13023 0.13849,-0.36587 0,-0.25838 -0.13849,-0.39687 -0.13643,-0.14056 -0.38241,-0.14056 h -0.61598 l -0.0496,-0.39275 h 0.66559 q 0.45682,0 0.70487,0.23151 0.25011,0.23151 0.25011,0.65733 0,0.44235 -0.25011,0.68626 -0.24805,0.24391 -0.70487,0.24391 z m -0.38447,1.11621 v -2.93522 h 0.41341 v 2.93522 z m 1.57509,0 -0.65732,-1.38079 h 0.45475 l 0.69867,1.38079 z"
               id="text37-8"
               style="font-size:16px;font-family:'Cascadia Code';-inkscape-font-specification:'Cascadia Code, Normal';text-align:center;letter-spacing:1.67px;white-space:pre;shape-padding:3.47745;stroke-width:0;stroke-linejoin:round;stroke-dasharray:none"
               aria-label="R" /><path
               d="m 117.07699,133.03293 0.84749,-2.93522 h 0.59945 l 0.84749,2.93522 h -0.43408 l -0.69453,-2.57968 h -0.0372 l -0.69453,2.57968 z m 0.39274,-0.7152 v -0.39274 h 1.48828 v 0.39274 z"
               id="text36-9"
               style="font-size:16px;font-family:'Cascadia Code';-inkscape-font-specification:'Cascadia Code, Normal';text-align:center;letter-spacing:1.67px;white-space:pre;shape-padding:3.47745;stroke-width:0;stroke-linejoin:round;stroke-dasharray:none"
               aria-label="A" /><path
               d="m 120.93982,133.03293 v -2.93522 h 0.41341 v 2.93522 z m -0.86817,-2.54247 v -0.39275 h 2.14974 v 0.39275 z"
               id="text35-7"
               style="font-size:16px;font-family:'Cascadia Code';-inkscape-font-specification:'Cascadia Code, Normal';text-align:center;letter-spacing:1.67px;white-space:pre;shape-padding:3.47745;stroke-width:0;stroke-linejoin:round;stroke-dasharray:none"
               aria-label="T" /><path
               d="m 123.50247,131.91672 v -0.39274 h 0.62425 q 0.24598,0 0.38241,-0.13022 0.13849,-0.13023 0.13849,-0.36587 0,-0.25838 -0.13849,-0.39687 -0.13643,-0.14056 -0.38241,-0.14056 h -0.61598 l -0.0496,-0.39275 h 0.66559 q 0.45682,0 0.70487,0.23151 0.25011,0.23151 0.25011,0.65733 0,0.44235 -0.25011,0.68626 -0.24805,0.24391 -0.70487,0.24391 z m -0.38447,1.11621 v -2.93522 h 0.41341 v 2.93522 z m 1.57509,0 -0.65732,-1.38079 h 0.45475 l 0.69867,1.38079 z"
               id="text34-2"
               style="font-size:16px;font-family:'Cascadia Code';-inkscape-font-specification:'Cascadia Code, Normal';text-align:center;letter-spacing:1.67px;white-space:pre;shape-padding:3.47745;stroke-width:0;stroke-linejoin:round;stroke-dasharray:none"
               aria-label="R" /><path
               d="m 126.08166,133.03293 v -2.93522 h 0.41341 v 2.93522 z m 0,0 v -0.39274 h 1.94303 v 0.39274 z m 0,-1.2733 v -0.39274 h 1.57096 v 0.39274 z m 0,-1.26917 v -0.39275 h 1.94303 v 0.39275 z"
               id="text33-2"
               style="font-size:16px;font-family:'Cascadia Code';-inkscape-font-specification:'Cascadia Code, Normal';text-align:center;letter-spacing:1.67px;white-space:pre;shape-padding:3.47745;stroke-width:0;stroke-linejoin:round;stroke-dasharray:none"
               aria-label="E" /><path
               d="m 129.34712,133.03293 v -0.39274 h 0.3266 q 0.45268,0 0.68006,-0.25838 0.22944,-0.25838 0.22944,-0.77514 0,-0.56018 -0.22944,-0.83716 -0.22738,-0.27905 -0.68006,-0.27905 h -0.31833 l -0.0496,-0.39275 h 0.36794 q 1.34359,0 1.34359,1.50896 0,1.42626 -1.34359,1.42626 z m -0.38447,0 v -2.93522 h 0.41341 v 2.93522 z"
               id="text32-8"
               style="font-size:16px;font-family:'Cascadia Code';-inkscape-font-specification:'Cascadia Code, Normal';text-align:center;letter-spacing:1.67px;white-space:pre;shape-padding:3.47745;stroke-width:0;stroke-linejoin:round;stroke-dasharray:none"
               aria-label="D" /><path
               d="m 135.19176,131.91672 v -0.39274 h 0.62425 q 0.24598,0 0.38241,-0.13022 0.13849,-0.13023 0.13849,-0.36587 0,-0.25838 -0.13849,-0.39687 -0.13643,-0.14056 -0.38241,-0.14056 h -0.61598 l -0.0496,-0.39275 h 0.66559 q 0.45682,0 0.70487,0.23151 0.25011,0.23151 0.25011,0.65733 0,0.44235 -0.25011,0.68626 -0.24805,0.24391 -0.70487,0.24391 z m -0.38447,1.11621 v -2.93522 h 0.41341 v 2.93522 z m 1.57509,0 -0.65732,-1.38079 h 0.45475 l 0.69867,1.38079 z"
               id="text31-2"
               style="font-size:16px;font-family:'Cascadia Code';-inkscape-font-specification:'Cascadia Code, Normal';text-align:center;letter-spacing:1.67px;white-space:pre;shape-padding:3.47745;stroke-width:0;stroke-linejoin:round;stroke-dasharray:none"
               aria-label="R" /><path
               d="m 137.77096,133.03293 v -2.93522 h 0.41341 v 2.93522 z m 0,0 v -0.39274 h 1.94304 v 0.39274 z m 0,-1.2733 v -0.39274 h 1.57097 v 0.39274 z m 0,-1.26917 v -0.39275 h 1.94304 v 0.39275 z"
               id="text30-8"
               style="font-size:16px;font-family:'Cascadia Code';-inkscape-font-specification:'Cascadia Code, Normal';text-align:center;letter-spacing:1.67px;white-space:pre;shape-padding:3.47745;stroke-width:0;stroke-linejoin:round;stroke-dasharray:none"
               aria-label="E" /><path
               d="m 141.50149,133.07428 q -0.25011,0 -0.46924,-0.0414 -0.21704,-0.0393 -0.40307,-0.11988 l 0.0537,-0.41755 q 0.22738,0.0971 0.43823,0.14883 0.21291,0.0496 0.41341,0.0496 0.28938,0 0.42995,-0.10129 0.14055,-0.10128 0.14055,-0.30799 0,-0.26252 -0.26871,-0.38447 l -0.50851,-0.23151 q -0.29972,-0.13643 -0.46095,-0.32867 -0.15915,-0.19223 -0.15915,-0.47748 0,-0.38448 0.23151,-0.59532 0.23151,-0.21084 0.65524,-0.21084 0.29559,0 0.52298,0.0868 0.22738,0.0868 0.43822,0.28319 l -0.2894,0.29352 q -0.1819,-0.14883 -0.34107,-0.21498 -0.15708,-0.0682 -0.32864,-0.0682 -0.21291,0 -0.33073,0.10335 -0.11575,0.10129 -0.11575,0.30179 0,0.14263 0.0765,0.23358 0.0765,0.0889 0.22532,0.15917 l 0.42995,0.20257 q 0.3266,0.15296 0.49609,0.3452 0.16949,0.19223 0.16949,0.49402 0,0.39894 -0.26045,0.59945 -0.25837,0.19844 -0.78547,0.19844 z"
               id="text29-9"
               style="font-size:16px;font-family:'Cascadia Code';-inkscape-font-specification:'Cascadia Code, Normal';text-align:center;letter-spacing:1.67px;white-space:pre;shape-padding:3.47745;stroke-width:0;stroke-linejoin:round;stroke-dasharray:none"
               aria-label="S" /><path
               d="m 144.52509,133.07428 q -1.08315,0 -1.08315,-1.48829 0,-1.52962 1.08315,-1.52962 1.08313,0 1.08313,1.52962 0,1.48829 -1.08313,1.48829 z m 0,-0.38034 q 0.64905,0 0.64905,-1.10795 0,-1.14928 -0.64905,-1.14928 -0.64905,0 -0.64905,1.14928 0,1.10795 0.64905,1.10795 z"
               id="text28-0"
               style="font-size:16px;font-family:'Cascadia Code';-inkscape-font-specification:'Cascadia Code, Normal';text-align:center;letter-spacing:1.67px;white-space:pre;shape-padding:3.47745;stroke-width:0;stroke-linejoin:round;stroke-dasharray:none"
               aria-label="O" /><path
               d="m 147.43916,133.07428 q -0.94258,0 -0.94258,-0.98392 v -1.99265 H 146.91 v 1.99265 q 0,0.29352 0.12813,0.44235 0.13023,0.14883 0.40929,0.14883 0.53745,0 0.53745,-0.59118 v -1.99265 h 0.41341 v 1.99265 q 0,0.49196 -0.24392,0.73793 -0.24392,0.24599 -0.7152,0.24599 z"
               id="text27-7"
               style="font-size:16px;font-family:'Cascadia Code';-inkscape-font-specification:'Cascadia Code, Normal';text-align:center;letter-spacing:1.67px;white-space:pre;shape-padding:3.47745;stroke-width:0;stroke-linejoin:round;stroke-dasharray:none"
               aria-label="U" /><path
               d="m 149.80335,131.91672 v -0.39274 h 0.62425 q 0.24599,0 0.38241,-0.13022 0.13848,-0.13023 0.13848,-0.36587 0,-0.25838 -0.13848,-0.39687 -0.13642,-0.14056 -0.38241,-0.14056 h -0.61597 l -0.0496,-0.39275 h 0.66558 q 0.45683,0 0.70488,0.23151 0.25011,0.23151 0.25011,0.65733 0,0.44235 -0.25011,0.68626 -0.24805,0.24391 -0.70488,0.24391 z m -0.38447,1.11621 v -2.93522 h 0.41341 v 2.93522 z m 1.57509,0 -0.65733,-1.38079 h 0.45477 l 0.69866,1.38079 z"
               id="text26-8"
               style="font-size:16px;font-family:'Cascadia Code';-inkscape-font-specification:'Cascadia Code, Normal';text-align:center;letter-spacing:1.67px;white-space:pre;shape-padding:3.47745;stroke-width:0;stroke-linejoin:round;stroke-dasharray:none"
               aria-label="R" /><path
               d="m 153.59797,133.07428 q -1.36837,0 -1.36837,-1.51309 0,-0.71727 0.34518,-1.11001 0.3452,-0.39481 0.97358,-0.39481 0.30388,0 0.52917,0.0971 0.22532,0.0951 0.32867,0.27286 l -0.30591,0.30385 q -0.093,-0.14056 -0.23773,-0.21704 -0.14261,-0.0765 -0.31004,-0.0765 -0.39897,0 -0.6408,0.28732 -0.23979,0.28732 -0.23979,0.81649 0,1.15342 0.99634,1.15342 0.29972,0 0.59116,-0.12403 l 0.0951,0.36381 q -0.35967,0.14056 -0.75655,0.14056 z"
               id="text25-1"
               style="font-size:16px;font-family:'Cascadia Code';-inkscape-font-specification:'Cascadia Code, Normal';text-align:center;letter-spacing:1.67px;white-space:pre;shape-padding:3.47745;stroke-width:0;stroke-linejoin:round;stroke-dasharray:none"
               aria-label="C" /><path
               d="m 155.30488,133.03293 v -2.93522 h 0.41341 v 2.93522 z m 0,0 v -0.39274 h 1.94305 v 0.39274 z m 0,-1.2733 v -0.39274 h 1.57096 v 0.39274 z m 0,-1.26917 v -0.39275 h 1.94305 v 0.39275 z"
               id="text24-5"
               style="font-size:16px;font-family:'Cascadia Code';-inkscape-font-specification:'Cascadia Code, Normal';text-align:center;letter-spacing:1.67px;white-space:pre;shape-padding:3.47745;stroke-width:0;stroke-linejoin:round;stroke-dasharray:none"
               aria-label="E" /><path
               d="m 100.4798,137.63199 v -2.93522 h 0.41341 v 2.93522 z m -0.684198,0 v -0.39274 h 1.785938 v 0.39274 z m 0,-2.54248 v -0.39274 h 1.785938 v 0.39274 z"
               id="text23-8"
               style="font-size:16px;font-family:'Cascadia Code';-inkscape-font-specification:'Cascadia Code, Normal';text-align:center;letter-spacing:1.69px;white-space:pre;shape-padding:3.47745;stroke-width:0;stroke-linejoin:round;stroke-dasharray:none"
               aria-label="I" /><path
               d="m 104.0296,137.63199 -0.90951,-2.23242 h -0.19016 v -0.7028 h 0.27285 l 0.9095,2.23242 h 0.10336 v 0.7028 z m -1.34772,0 v -2.93522 h 0.39687 v 2.93522 z m 1.47174,0 v -2.93522 h 0.39688 v 2.93522 z"
               id="text22-6"
               style="font-size:16px;font-family:'Cascadia Code';-inkscape-font-specification:'Cascadia Code, Normal';text-align:center;letter-spacing:1.69px;white-space:pre;shape-padding:3.47745;stroke-width:0;stroke-linejoin:round;stroke-dasharray:none"
               aria-label="N" /><path
               d="m 106.3371,137.63199 v -2.93522 h 0.41341 v 2.93522 z m -0.86817,-2.54248 v -0.39274 h 2.14974 v 0.39274 z"
               id="text21-1"
               style="font-size:16px;font-family:'Cascadia Code';-inkscape-font-specification:'Cascadia Code, Normal';text-align:center;letter-spacing:1.69px;white-space:pre;shape-padding:3.47745;stroke-width:0;stroke-linejoin:round;stroke-dasharray:none"
               aria-label="T" /><path
               d="m 108.56191,137.63199 v -2.93522 h 0.41342 v 2.93522 z m 0,0 v -0.39274 h 1.94304 v 0.39274 z m 0,-1.27331 v -0.39274 h 1.57097 v 0.39274 z m 0,-1.26917 v -0.39274 h 1.94304 v 0.39274 z"
               id="text20-2"
               style="font-size:16px;font-family:'Cascadia Code';-inkscape-font-specification:'Cascadia Code, Normal';text-align:center;letter-spacing:1.69px;white-space:pre;shape-padding:3.47745;stroke-width:0;stroke-linejoin:round;stroke-dasharray:none"
               aria-label="E" /><path
               d="m 111.48953,137.63199 v -2.93522 h 0.41341 v 2.93522 z m 0,0 v -0.39274 h 1.94303 v 0.39274 z"
               id="text19-4"
               style="font-size:16px;font-family:'Cascadia Code';-inkscape-font-specification:'Cascadia Code, Normal';text-align:center;letter-spacing:1.69px;white-space:pre;shape-padding:3.47745;stroke-width:0;stroke-linejoin:round;stroke-dasharray:none"
               aria-label="L" /><path
               d="m 114.41714,137.63199 v -2.93522 h 0.41342 v 2.93522 z m 0,0 v -0.39274 h 1.94304 v 0.39274 z"
               id="text18-2"
               style="font-size:16px;font-family:'Cascadia Code';-inkscape-font-specification:'Cascadia Code, Normal';text-align:center;letter-spacing:1.69px;white-space:pre;shape-padding:3.47745;stroke-width:0;stroke-linejoin:round;stroke-dasharray:none"
               aria-label="L" /><path
               d="m 118.04549,137.63199 v -2.93522 h 0.41341 v 2.93522 z m -0.6842,0 v -0.39274 h 1.78594 v 0.39274 z m 0,-2.54248 v -0.39274 h 1.78594 v 0.39274 z"
               id="text17-5"
               style="font-size:16px;font-family:'Cascadia Code';-inkscape-font-specification:'Cascadia Code, Normal';text-align:center;letter-spacing:1.69px;white-space:pre;shape-padding:3.47745;stroke-width:0;stroke-linejoin:round;stroke-dasharray:none"
               aria-label="I" /><path
               d="m 120.27238,137.63199 v -2.93522 h 0.41341 v 2.93522 z m 0,0 v -0.39274 h 1.94303 v 0.39274 z m 0,-1.27331 v -0.39274 h 1.57096 v 0.39274 z m 0,-1.26917 v -0.39274 h 1.94303 v 0.39274 z"
               id="text16-8"
               style="font-size:16px;font-family:'Cascadia Code';-inkscape-font-specification:'Cascadia Code, Normal';text-align:center;letter-spacing:1.69px;white-space:pre;shape-padding:3.47745;stroke-width:0;stroke-linejoin:round;stroke-dasharray:none"
               aria-label="E" /><path
               d="m 124.32033,137.67333 q -0.65732,0 -0.98598,-0.37827 -0.32866,-0.37827 -0.32866,-1.13482 0,-0.71726 0.34106,-1.11 0.34107,-0.39481 0.95705,-0.39481 0.30799,0 0.5395,0.0971 0.23151,0.0951 0.34106,0.27078 l -0.30799,0.30593 q -0.0951,-0.14056 -0.23978,-0.21704 -0.14262,-0.0765 -0.30799,-0.0765 -0.41754,0 -0.64905,0.28938 -0.23151,0.28733 -0.23151,0.81443 0,0.5767 0.23151,0.86609 0.23151,0.28732 0.69039,0.28732 0.19637,0 0.3452,-0.0372 0.1509,-0.0393 0.24598,-0.0661 l 0.16123,0.35967 q -0.0868,0.0269 -0.30592,0.0765 -0.21704,0.0475 -0.4961,0.0475 z m 0.40928,-0.12402 v -1.38493 h 0.39274 v 1.38493 z m -0.59945,-0.99219 v -0.39274 h 0.97979 v 0.39274 z"
               id="text15-6"
               style="font-size:16px;font-family:'Cascadia Code';-inkscape-font-specification:'Cascadia Code, Normal';text-align:center;letter-spacing:1.69px;white-space:pre;shape-padding:3.47745;stroke-width:0;stroke-linejoin:round;stroke-dasharray:none"
               aria-label="G" /><path
               d="m 126.1276,137.63199 v -2.93522 h 0.41342 v 2.93522 z m 0,0 v -0.39274 h 1.94304 v 0.39274 z m 0,-1.27331 v -0.39274 h 1.57097 v 0.39274 z m 0,-1.26917 v -0.39274 h 1.94304 v 0.39274 z"
               id="text14-2"
               style="font-size:16px;font-family:'Cascadia Code';-inkscape-font-specification:'Cascadia Code, Normal';text-align:center;letter-spacing:1.69px;white-space:pre;shape-padding:3.47745;stroke-width:0;stroke-linejoin:round;stroke-dasharray:none"
               aria-label="E" /><path
               d="m 130.37812,137.63199 -0.90951,-2.23242 h -0.19016 v -0.7028 h 0.27285 l 0.9095,2.23242 h 0.10336 v 0.7028 z m -1.34772,0 v -2.93522 h 0.39687 v 2.93522 z m 1.47174,0 v -2.93522 h 0.39688 v 2.93522 z"
               id="text13-6"
               style="font-size:16px;font-family:'Cascadia Code';-inkscape-font-specification:'Cascadia Code, Normal';text-align:center;letter-spacing:1.69px;white-space:pre;shape-padding:3.47745;stroke-width:0;stroke-linejoin:round;stroke-dasharray:none"
               aria-label="N" /><path
               d="m 133.19825,137.67333 q -1.36839,0 -1.36839,-1.51309 0,-0.71726 0.3452,-1.11 0.34519,-0.39481 0.97358,-0.39481 0.30386,0 0.52916,0.0971 0.22532,0.0951 0.32867,0.27285 l -0.30593,0.30386 q -0.093,-0.14056 -0.23771,-0.21704 -0.14263,-0.0765 -0.31006,-0.0765 -0.39894,0 -0.64079,0.28732 -0.23977,0.28732 -0.23977,0.81649 0,1.15341 0.99632,1.15341 0.29972,0 0.59118,-0.12402 l 0.0951,0.3638 q -0.35967,0.14056 -0.75654,0.14056 z"
               id="text12-5"
               style="font-size:16px;font-family:'Cascadia Code';-inkscape-font-specification:'Cascadia Code, Normal';text-align:center;letter-spacing:1.69px;white-space:pre;shape-padding:3.47745;stroke-width:0;stroke-linejoin:round;stroke-dasharray:none"
               aria-label="C" /><path
               d="m 134.91043,137.63199 v -2.93522 h 0.41342 v 2.93522 z m 0,0 v -0.39274 h 1.94304 v 0.39274 z m 0,-1.27331 v -0.39274 h 1.57097 v 0.39274 z m 0,-1.26917 v -0.39274 h 1.94304 v 0.39274 z"
               id="text11-3"
               style="font-size:16px;font-family:'Cascadia Code';-inkscape-font-specification:'Cascadia Code, Normal';text-align:center;letter-spacing:1.69px;white-space:pre;shape-padding:3.47745;stroke-width:0;stroke-linejoin:round;stroke-dasharray:none"
               aria-label="E" /><path
               d="m 141.57388,137.67333 q -0.25011,0 -0.46921,-0.0413 -0.21704,-0.0393 -0.40309,-0.11989 l 0.0538,-0.41755 q 0.22736,0.0972 0.4382,0.14883 0.21291,0.0496 0.41341,0.0496 0.28941,0 0.42995,-0.10128 0.14058,-0.10129 0.14058,-0.30799 0,-0.26252 -0.26874,-0.38448 l -0.50848,-0.23151 q -0.29974,-0.13642 -0.46096,-0.32866 -0.15917,-0.19224 -0.15917,-0.47749 0,-0.38447 0.23151,-0.59531 0.23151,-0.21084 0.65527,-0.21084 0.29559,0 0.52295,0.0868 0.22738,0.0868 0.43823,0.28319 l -0.2894,0.29352 q -0.18191,-0.14883 -0.34105,-0.21497 -0.15711,-0.0682 -0.32867,-0.0682 -0.21291,0 -0.33073,0.10335 -0.11575,0.10128 -0.11575,0.30179 0,0.14262 0.0765,0.23358 0.0765,0.0889 0.22532,0.15916 l 0.42995,0.20257 q 0.3266,0.15296 0.49609,0.3452 0.1695,0.19224 0.1695,0.49403 0,0.39894 -0.26043,0.59944 -0.2584,0.19844 -0.7855,0.19844 z"
               id="text10-9"
               style="font-size:16px;font-family:'Cascadia Code';-inkscape-font-specification:'Cascadia Code, Normal';text-align:center;letter-spacing:1.69px;white-space:pre;shape-padding:3.47745;stroke-width:0;stroke-linejoin:round;stroke-dasharray:none"
               aria-label="S" /><path
               d="m 144.4271,136.65221 -1.01288,-1.95544 h 0.45476 l 0.7152,1.46761 h 0.0372 l 0.71522,-1.46761 h 0.45474 l -1.01285,1.95544 z m -0.031,0.97978 v -1.44694 h 0.41341 v 1.44694 z"
               id="text9-2"
               style="font-size:16px;font-family:'Cascadia Code';-inkscape-font-specification:'Cascadia Code, Normal';text-align:center;letter-spacing:1.69px;white-space:pre;shape-padding:3.47745;stroke-width:0;stroke-linejoin:round;stroke-dasharray:none"
               aria-label="Y" /><path
               d="m 147.42911,137.67333 q -0.25011,0 -0.46921,-0.0413 -0.21704,-0.0393 -0.40309,-0.11989 l 0.0538,-0.41755 q 0.22736,0.0972 0.4382,0.14883 0.21291,0.0496 0.41341,0.0496 0.2894,0 0.42995,-0.10128 0.14057,-0.10129 0.14057,-0.30799 0,-0.26252 -0.26873,-0.38448 l -0.50848,-0.23151 q -0.29972,-0.13642 -0.46096,-0.32866 -0.15917,-0.19224 -0.15917,-0.47749 0,-0.38447 0.23151,-0.59531 0.23151,-0.21084 0.65527,-0.21084 0.29559,0 0.52295,0.0868 0.22738,0.0868 0.43823,0.28319 l -0.2894,0.29352 q -0.18191,-0.14883 -0.34105,-0.21497 -0.15711,-0.0682 -0.32867,-0.0682 -0.21291,0 -0.33073,0.10335 -0.11575,0.10128 -0.11575,0.30179 0,0.14262 0.0765,0.23358 0.0765,0.0889 0.22529,0.15916 l 0.42995,0.20257 q 0.3266,0.15296 0.49609,0.3452 0.16949,0.19224 0.16949,0.49403 0,0.39894 -0.26042,0.59944 -0.2584,0.19844 -0.7855,0.19844 z"
               id="text8-4"
               style="font-size:16px;font-family:'Cascadia Code';-inkscape-font-specification:'Cascadia Code, Normal';text-align:center;letter-spacing:1.69px;white-space:pre;shape-padding:3.47745;stroke-width:0;stroke-linejoin:round;stroke-dasharray:none"
               aria-label="S" /><path
               d="m 150.25129,137.63199 v -2.93522 h 0.41341 v 2.93522 z m -0.86815,-2.54248 v -0.39274 h 2.14974 v 0.39274 z"
               id="text7-6"
               style="font-size:16px;font-family:'Cascadia Code';-inkscape-font-specification:'Cascadia Code, Normal';text-align:center;letter-spacing:1.69px;white-space:pre;shape-padding:3.47745;stroke-width:0;stroke-linejoin:round;stroke-dasharray:none"
               aria-label="T" /><path
               d="m 152.47612,137.63199 v -2.93522 h 0.41341 v 2.93522 z m 0,0 v -0.39274 h 1.94304 v 0.39274 z m 0,-1.27331 v -0.39274 h 1.57096 v 0.39274 z m 0,-1.26917 v -0.39274 h 1.94304 v 0.39274 z"
               id="text6-1"
               style="font-size:16px;font-family:'Cascadia Code';-inkscape-font-specification:'Cascadia Code, Normal';text-align:center;letter-spacing:1.69px;white-space:pre;shape-padding:3.47745;stroke-width:0;stroke-linejoin:round;stroke-dasharray:none"
               aria-label="E" /><path
               d="m 156.24294,136.4331 0.062,-0.47543 h 0.0249 l 0.33485,-1.2609 h 0.29353 v 0.5209 h -0.11991 l -0.33485,1.21543 z m -0.90535,1.19889 v -2.93522 h 0.39687 v 2.93522 z m 0.78546,-1.19889 -0.33485,-1.21543 h -0.11989 v -0.5209 h 0.29351 l 0.33488,1.2609 h 0.0164 l 0.0413,0.47543 z m 0.76896,1.19889 v -2.93522 h 0.39688 v 2.93522 z"
               id="text5-8"
               style="font-size:16px;font-family:'Cascadia Code';-inkscape-font-specification:'Cascadia Code, Normal';text-align:center;letter-spacing:1.69px;white-space:pre;shape-padding:3.47745;stroke-width:0;stroke-linejoin:round;stroke-dasharray:none"
               aria-label="M" /></g></g><path
           style="fill:#384eaa;fill-opacity:1;stroke:#000000;stroke-width:0.554;stroke-dasharray:none;stroke-opacity:1"
           d="m 83.53137,41.710677 c -3.316768,-0.72005 -3.411467,-5.46087 -0.130075,-6.51187 0.107828,-0.0345 0.117668,-0.17512 0.117668,-1.68085 v -1.64315 l -0.353004,-0.046 C 81.988263,31.675277 80.310085,30.799191 79.5623,29.947501 l -0.203773,-0.23207 -1.754423,1.15743 c -1.735712,1.145096 -1.753991,1.159596 -1.714174,1.359156 0.839677,4.2083 -4.443181,6.17468 -6.276152,2.33611 -1.437279,-3.00992 2.408648,-6.067676 5.046664,-4.012416 l 0.304838,0.23749 1.099801,-0.71823 c 2.100305,-1.37161 2.34372,-1.53965 2.34372,-1.61794 0,-0.0433 -0.08747,-0.27368 -0.194382,-0.51196 -0.625162,-1.39337 -0.7046,-3.2303 -0.202045,-4.67213 0.07422,-0.21293 0.151607,-0.43891 0.171979,-0.50217 0.02876,-0.0893 -0.186338,-0.26037 -0.961892,-0.76496 -0.549409,-0.35746 -1.267976,-0.82918 -1.596812,-1.04828 l -0.597886,-0.39835 -0.175363,0.16529 c -2.560757,2.41354 -6.700808,-0.73827 -5.193836,-3.95406 1.759765,-3.75524 7.200502,-1.64471 6.231427,2.41725 -0.03312,0.13882 0.259804,0.34695 2.335884,1.65971 0.818527,0.51758 0.803686,0.51273 0.940383,0.30703 0.635934,-0.95698 2.142403,-1.9007 3.599403,-2.25483 l 0.751213,-0.18259 7.82e-4,-1.81545 7.81e-4,-1.81546 -0.463289,-0.18998 c -3.710284,-1.52155 -2.058377,-7.1640304 1.883378,-6.4331304 3.281716,0.60851 3.676517,5.2636904 0.548076,6.4624704 l -0.419257,0.16064 -9.94e-4,1.83227 c -9.95e-4,1.74595 0.005,1.83226 0.12487,1.83226 1.021592,0 2.848739,0.93666 3.889428,1.99384 0.303863,0.30869 0.56632,0.56124 0.583237,0.56124 0.122642,0 3.095453,-2.0286 3.075221,-2.09848 -1.161371,-4.01184 4.439916,-6.174 6.238461,-2.40812 1.481272,3.10157 -2.4639,6.17214 -5.140686,4.00104 l -0.272127,-0.22072 -1.584587,1.05234 -1.584586,1.05234 0.114638,0.26896 c 0.599929,1.40747 0.551881,3.43761 -0.118158,4.99245 -0.131467,0.30507 -0.226406,0.56546 -0.210975,0.57863 0.07704,0.0658 3.20819,2.11667 3.332074,2.18253 0.122863,0.0653 0.187224,0.0433 0.442385,-0.15158 3.240971,-2.47466 7.205074,2.168546 4.317028,5.056596 -2.354664,2.35467 -6.458969,0.006 -5.589337,-3.19833 0.09298,-0.34262 0.09119,-0.36054 -0.04559,-0.45723 -0.445154,-0.31466 -3.301263,-2.178306 -3.338338,-2.178306 -0.02434,0 -0.268337,0.19864 -0.542185,0.44141 -0.961233,0.85218 -2.044357,1.392406 -3.171397,1.581776 l -0.520357,0.0874 v 1.66786 c 0,1.55369 0.0082,1.66786 0.119564,1.66786 0.26529,0 1.105917,0.47714 1.449409,0.82267 2.393802,2.40807 0.215359,6.38428 -3.103063,5.66388 z m 1.177775,-1.51374 c 1.998699,-0.43429 1.695635,-3.51835 -0.3462,-3.52301 -2.3999,-0.006 -2.486978,3.4314 -0.09085,3.58576 0.0629,0.004 0.259572,-0.0241 0.437053,-0.0627 z m -11.309649,-5.33524 c 1.741877,-0.82589 1.181827,-3.401626 -0.739629,-3.401626 -1.000659,0 -1.779555,0.780186 -1.781177,1.784116 -0.0021,1.27481 1.377123,2.15978 2.520806,1.61751 z m 23.188654,0.0238 c 1.13301,-0.42391 1.49592,-1.88458 0.694455,-2.79509 -1.057301,-1.201156 -2.950719,-0.607526 -3.116339,0.97703 -0.141079,1.34977 1.127757,2.30226 2.421884,1.81806 z M 85.225042,30.281721 c 3.962712,-0.69104 5.532549,-5.61583 2.701,-8.4734 -3.225306,-3.25495 -8.695135,-1.00627 -8.672594,3.56535 0.01553,3.15107 2.82159,5.45736 5.971594,4.90805 z m -11.755283,-10.5068 c 1.692153,-0.8641 1.064138,-3.37812 -0.843511,-3.37666 -1.621432,10e-4 -2.34653,2.05622 -1.109687,3.14493 0.498244,0.43857 1.350195,0.53965 1.953198,0.23173 z m 23.270286,-0.003 c 0.928596,-0.47418 1.263227,-1.72344 0.689375,-2.57363 -1.048077,-1.55276 -3.459247,-0.67703 -3.266907,1.18655 0.125604,1.21699 1.481589,1.94671 2.577532,1.38708 z m -11.688537,-6.37245 c 1.477209,-0.73613 1.329106,-2.86568 -0.233478,-3.35717 -1.369339,-0.4307104 -2.689039,0.95376 -2.208207,2.31659 0.360694,1.02231 1.502144,1.50877 2.441685,1.04058 z"
           id="path2-6-1-1"
           inkscape:export-filename="Icon.png"
           inkscape:export-xdpi="1000"
           inkscape:export-ydpi="1000" /></g></g></g></svg>
