<?xml version="1.0" encoding="UTF-8" standalone="no"?>
<!-- Created with Inkscape (http://www.inkscape.org/) -->

<svg
   width="29.998741mm"
   height="33.39864mm"
   viewBox="0 0 29.998741 33.39864"
   version="1.1"
   id="svg1"
   xml:space="preserve"
   xmlns:inkscape="http://www.inkscape.org/namespaces/inkscape"
   xmlns:sodipodi="http://sodipodi.sourceforge.net/DTD/sodipodi-0.dtd"
   xmlns="http://www.w3.org/2000/svg"
   xmlns:svg="http://www.w3.org/2000/svg"><sodipodi:namedview
     id="namedview1"
     pagecolor="#ffffff"
     bordercolor="#000000"
     borderopacity="0.25"
     inkscape:showpageshadow="2"
     inkscape:pageopacity="0.0"
     inkscape:pagecheckerboard="0"
     inkscape:deskcolor="#d1d1d1"
     inkscape:document-units="mm"><inkscape:page
       x="0"
       y="0"
       width="29.998741"
       height="33.39864"
       id="page2"
       margin="0"
       bleed="0" /></sodipodi:namedview><defs
     id="defs1"><rect
       x="645.41406"
       y="314.36115"
       width="1121.1287"
       height="233.14194"
       id="rect3" /><rect
       x="645.41406"
       y="314.36115"
       width="619.53613"
       height="97.52153"
       id="rect3-5" /><rect
       x="645.41406"
       y="314.36115"
       width="619.53613"
       height="97.52153"
       id="rect3-5-2" /><rect
       x="645.41406"
       y="314.36115"
       width="1121.1287"
       height="233.14194"
       id="rect3-4" /><rect
       x="645.41406"
       y="314.36115"
       width="619.53613"
       height="97.52153"
       id="rect3-5-4" /><rect
       x="645.41406"
       y="314.36115"
       width="619.53613"
       height="97.52153"
       id="rect3-5-2-6" /></defs><g
     inkscape:label="Layer 1"
     inkscape:groupmode="layer"
     id="layer1"
     transform="translate(-41.176677,-175.60426)"><g
       id="g3"
       transform="translate(-7.3516717,93.852535)"><g
         id="g4"><text
           xml:space="preserve"
           transform="matrix(0.26458333,0,0,0.26458333,-206.78801,-45.462835)"
           id="text2"
           style="font-style:normal;font-variant:normal;font-weight:normal;font-stretch:normal;font-size:64px;font-family:'BankGothic Lt BT';-inkscape-font-specification:'BankGothic Lt BT, Normal';font-variant-ligatures:normal;font-variant-caps:normal;font-variant-numeric:normal;font-variant-east-asian:normal;text-align:center;letter-spacing:50px;writing-mode:lr-tb;direction:ltr;white-space:pre;shape-inside:url(#rect3);fill:#1e3a8a;stroke-width:0.529134;stroke-linejoin:round"><tspan
             x="1058.9473"
             y="370.98633"
             id="tspan4">IRIS</tspan></text><text
           xml:space="preserve"
           transform="matrix(0.26458333,0,0,0.26458333,-140.45511,-28.36985)"
           id="text2-1"
           style="font-style:normal;font-variant:normal;font-weight:normal;font-stretch:normal;font-size:16px;font-family:'Book Antiqua';-inkscape-font-specification:'Book Antiqua, Normal';font-variant-ligatures:normal;font-variant-caps:normal;font-variant-numeric:normal;font-variant-east-asian:normal;text-align:center;letter-spacing:3.72px;writing-mode:lr-tb;direction:ltr;white-space:pre;shape-inside:url(#rect3-5);shape-padding:3.47745;fill:#1e3a8a;stroke-width:0.529134;stroke-linejoin:round"><tspan
             x="814.9432"
             y="332.25642"
             id="tspan8"><tspan
               style="font-family:'Arial Unicode MS';-inkscape-font-specification:'Arial Unicode MS, Normal'"
               id="tspan6">INTEGRATRED RESOURCE</tspan></tspan></text><text
           xml:space="preserve"
           transform="matrix(0.26458333,0,0,0.26458333,-140.40654,-22.620702)"
           id="text2-1-0"
           style="font-style:normal;font-variant:normal;font-weight:normal;font-stretch:normal;font-size:16px;font-family:'Book Antiqua';-inkscape-font-specification:'Book Antiqua, Normal';font-variant-ligatures:normal;font-variant-caps:normal;font-variant-numeric:normal;font-variant-east-asian:normal;text-align:center;letter-spacing:4.47px;writing-mode:lr-tb;direction:ltr;white-space:pre;shape-inside:url(#rect3-5-2);shape-padding:3.47745;fill:#1e3a8a;stroke-width:0.529134;stroke-linejoin:round"><tspan
             x="814.47055"
             y="332.25642"
             id="tspan10"><tspan
               style="font-family:'Arial Unicode MS';-inkscape-font-specification:'Arial Unicode MS, Normal'"
               id="tspan9">INTELLIEGENCE SYSTEM</tspan></tspan></text><path
           style="fill:#1e3a8a;stroke-width:0.254131"
           d="m 62.758006,115.06443 c -3.316768,-0.72005 -3.411467,-5.46087 -0.130075,-6.51187 0.107828,-0.0345 0.117668,-0.17512 0.117668,-1.68085 v -1.64315 l -0.353004,-0.046 c -1.177696,-0.15353 -2.855874,-1.02962 -3.603659,-1.88131 l -0.203773,-0.23207 -1.754423,1.15743 c -1.735712,1.1451 -1.753991,1.1596 -1.714174,1.35916 0.839677,4.2083 -4.44318,6.17468 -6.276151,2.33611 -1.437279,-3.00992 2.408647,-6.06768 5.046663,-4.01242 l 0.304838,0.23749 1.099801,-0.71823 c 2.100305,-1.37161 2.34372,-1.53965 2.34372,-1.61794 0,-0.0433 -0.08747,-0.27368 -0.194382,-0.51196 -0.625162,-1.393367 -0.7046,-3.230298 -0.202045,-4.672128 0.07422,-0.21293 0.151607,-0.43891 0.171979,-0.50217 0.02876,-0.0893 -0.186338,-0.26037 -0.961892,-0.76496 -0.549409,-0.35746 -1.267976,-0.82918 -1.596812,-1.04828 l -0.597886,-0.39835 -0.175363,0.16529 c -2.560757,2.41354 -6.700807,-0.73827 -5.193835,-3.95406 1.759765,-3.75524 7.200501,-1.64471 6.231426,2.41725 -0.03312,0.13882 0.259804,0.34695 2.335884,1.65971 0.818527,0.51758 0.803686,0.51273 0.940383,0.30703 0.635934,-0.95698 2.142403,-1.9007 3.599403,-2.25483 l 0.751213,-0.18259 7.82e-4,-1.81545 7.81e-4,-1.81546 -0.463289,-0.18998 c -3.710284,-1.52155 -2.058377,-7.16403 1.883378,-6.43313 3.281716,0.60851 3.676517,5.26369 0.548076,6.46247 l -0.419257,0.16064 -9.94e-4,1.83227 c -9.95e-4,1.74595 0.005,1.83226 0.12487,1.83226 1.021592,0 2.848739,0.93666 3.889428,1.99384 0.303863,0.30869 0.56632,0.56124 0.583237,0.56124 0.122642,0 3.095453,-2.0286 3.075221,-2.09848 -1.161371,-4.01184 4.439916,-6.174 6.238461,-2.40812 1.481277,3.10157 -2.4639,6.17214 -5.140686,4.00104 l -0.272127,-0.22072 -1.584587,1.05234 -1.584586,1.05234 0.114638,0.26896 c 0.599929,1.40747 0.551881,3.437611 -0.118158,4.992448 -0.131467,0.30507 -0.226406,0.56546 -0.210975,0.57863 0.07704,0.0658 3.20819,2.11667 3.332074,2.18253 0.122863,0.0653 0.187224,0.0433 0.442385,-0.15158 3.240971,-2.47466 7.205076,2.16855 4.317028,5.0566 -2.354664,2.35467 -6.458969,0.006 -5.589337,-3.19833 0.09298,-0.34262 0.09119,-0.36054 -0.04559,-0.45723 -0.445154,-0.31466 -3.301263,-2.17831 -3.338338,-2.17831 -0.02434,0 -0.268337,0.19864 -0.542185,0.44141 -0.961233,0.85218 -2.044357,1.39241 -3.171397,1.58178 l -0.520357,0.0874 V 106.91 c 0,1.55369 0.0082,1.66786 0.119564,1.66786 0.26529,0 1.105917,0.47714 1.449409,0.82267 2.393802,2.40807 0.215359,6.38428 -3.103063,5.66388 z m 1.177775,-1.51374 c 1.998699,-0.43429 1.695635,-3.51835 -0.3462,-3.52301 -2.3999,-0.006 -2.486978,3.4314 -0.09085,3.58576 0.0629,0.004 0.259572,-0.0241 0.437053,-0.0627 z m -11.309649,-5.33524 c 1.741877,-0.82589 1.181827,-3.40163 -0.739629,-3.40163 -1.000658,0 -1.779554,0.78019 -1.781176,1.78412 -0.0021,1.27481 1.377122,2.15978 2.520805,1.61751 z m 23.188654,0.0238 c 1.13301,-0.42391 1.49592,-1.88458 0.694455,-2.79509 -1.057301,-1.20116 -2.950719,-0.60753 -3.116339,0.97703 -0.141079,1.34977 1.127757,2.30226 2.421884,1.81806 z m -11.363108,-4.60378 c 3.962712,-0.69104 5.532549,-5.615828 2.701,-8.473398 -3.225306,-3.25495 -8.695135,-1.00627 -8.672594,3.56535 0.01553,3.151068 2.82159,5.457358 5.971594,4.908048 z M 52.696395,93.128672 c 1.692153,-0.8641 1.064138,-3.37812 -0.843511,-3.37666 -1.621431,0.001 -2.346529,2.05622 -1.109686,3.14493 0.498243,0.43857 1.350194,0.53965 1.953197,0.23173 z m 23.270286,-0.003 c 0.928596,-0.47418 1.263227,-1.72344 0.689375,-2.57363 -1.048077,-1.55276 -3.459247,-0.67703 -3.266907,1.18655 0.125604,1.21699 1.481589,1.94671 2.577532,1.38708 z m -11.688537,-6.37245 c 1.477209,-0.73613 1.329106,-2.86568 -0.233478,-3.35717 -1.369339,-0.43071 -2.689039,0.95376 -2.208207,2.31659 0.360694,1.02231 1.502144,1.50877 2.441685,1.04058 z"
           id="path2-6"
           inkscape:export-filename="Icon.png"
           inkscape:export-xdpi="96"
           inkscape:export-ydpi="96" /><g
           id="g5"
           transform="translate(-0.46003718,0.07326599)"
           inkscape:export-filename="IRIS_Horizontal.svg"
           inkscape:export-xdpi="96"
           inkscape:export-ydpi="96"><text
             xml:space="preserve"
             transform="matrix(0.26458333,0,0,0.26458333,-206.78802,-1.199226)"
             id="text2-8"
             style="font-style:normal;font-variant:normal;font-weight:normal;font-stretch:normal;font-size:64px;font-family:'BankGothic Lt BT';-inkscape-font-specification:'BankGothic Lt BT, Normal';font-variant-ligatures:normal;font-variant-caps:normal;font-variant-numeric:normal;font-variant-east-asian:normal;text-align:center;letter-spacing:30px;writing-mode:lr-tb;direction:ltr;white-space:pre;shape-inside:url(#rect3-4);fill:#1e3a8a;stroke-width:0.529134;stroke-linejoin:round"><tspan
               x="1088.9473"
               y="370.98633"
               id="tspan11">IRIS</tspan></text><text
             xml:space="preserve"
             transform="matrix(0.26458333,0,0,0.26458333,-140.45512,15.893759)"
             id="text2-1-4"
             style="font-style:normal;font-variant:normal;font-weight:normal;font-stretch:normal;font-size:16px;font-family:'Cascadia Code';-inkscape-font-specification:'Cascadia Code, Normal';font-variant-ligatures:normal;font-variant-caps:normal;font-variant-numeric:normal;font-variant-east-asian:normal;text-align:center;letter-spacing:1.67px;writing-mode:lr-tb;direction:ltr;white-space:pre;shape-inside:url(#rect3-5-4);shape-padding:3.47745;fill:#1e3a8a;stroke-width:0.529134;stroke-linejoin:round"><tspan
               x="845.56664"
               y="332.611"
               id="tspan12">INTEGRATRED RESOURCE</tspan></text><text
             xml:space="preserve"
             transform="matrix(0.26458333,0,0,0.26458333,-140.40654,20.492814)"
             id="text2-1-0-9"
             style="font-style:normal;font-variant:normal;font-weight:normal;font-stretch:normal;font-size:16px;font-family:'Cascadia Code';-inkscape-font-specification:'Cascadia Code, Normal';font-variant-ligatures:normal;font-variant-caps:normal;font-variant-numeric:normal;font-variant-east-asian:normal;text-align:center;letter-spacing:1.69px;writing-mode:lr-tb;direction:ltr;white-space:pre;shape-inside:url(#rect3-5-2-6);shape-padding:3.47745;fill:#1e3a8a;stroke-width:0.529134;stroke-linejoin:round"><tspan
               x="845.37664"
               y="332.611"
               id="tspan13">INTELLIEGENCE SYSTEM</tspan></text></g></g></g></g></svg>
