<svg xmlns="http://www.w3.org/2000/svg" viewBox="0 0 320 60" width="160" height="30">
 <defs>
 <style>
 :root {
 --primary-navy: #1e3a8a;
 --accent-blue: #3b82f6;
 --text-gray: #64748b;
 }
 </style>
 </defs>
 
 <g transform="translate(10, 5) scale(0.5)">
 <circle cx="50" cy="50" r="48" fill="none" stroke="#1e3a8a" stroke-width="4"/>
 <circle cx="50" cy="50" r="38" fill="none" stroke="#64748b" stroke-width="3"/>
 <circle cx="50" cy="50" r="28" fill="none" stroke="#64748b" stroke-width="3"/>
 <g stroke-linecap="round" stroke-linejoin="round">
 <line x1="50" y1="2" x2="50" y2="98" stroke="#1e3a8a" stroke-width="3"/>
 <line x1="2" y1="50" x2="98" y2="50" stroke="#1e3a8a" stroke-width="3"/>
 <line x1="16.5" y1="16.5" x2="83.5" y2="83.5" stroke="#1e3a8a" stroke-width="3"/>
 <line x1="83.5" y1="16.5" x2="16.5" y2="83.5" stroke="#1e3a8a" stroke-width="3"/>
 <circle cx="50" cy="2" r="6" fill="#1e3a8a"/>
 <circle cx="98" cy="50" r="6" fill="#1e3a8a"/>
 <circle cx="50" cy="98" r="6" fill="#1e3a8a"/>
 <circle cx="2" cy="50" r="6" fill="#1e3a8a"/>
 <circle cx="16.5" cy="16.5" r="6" fill="#1e3a8a"/>
 <circle cx="83.5" cy="16.5" r="6" fill="#1e3a8a"/>
 <circle cx="83.5" cy="83.5" r="6" fill="#1e3a8a"/>
 <circle cx="16.5" cy="83.5" r="6" fill="#1e3a8a"/>
 <circle cx="50" cy="12" r="5" fill="#3b82f6"/>
 <circle cx="88" cy="50" r="5" fill="#3b82f6"/>
 <circle cx="50" cy="88" r="5" fill="#3b82f6"/>
 <circle cx="12" cy="50" r="5" fill="#3b82f6"/>
 <circle cx="24.5" cy="24.5" r="5" fill="#3b82f6"/>
 <circle cx="75.5" cy="24.5" r="5" fill="#3b82f6"/>
 <circle cx="75.5" cy="75.5" r="5" fill="#3b82f6"/>
 <circle cx="24.5" cy="75.5" r="5" fill="#3b82f6"/>
 <circle cx="50" cy="50" r="12" fill="#1e3a8a"/>
 </g>
 </g>
 
 <text x="75" y="42" font-family="Montserrat, Inter, Arial, sans-serif" font-size="36" font-weight="700" fill="#1e3a8a">IRIS</text>
 <text x="75" y="56" font-family="Montserrat, Inter, Arial, sans-serif" font-size="10" font-weight="400" fill="#64748b">Integrated Resource Intelligence System</text>
</svg>
